<svg width="1000" height="1000" viewBox="0 0 1000 1000" fill="none" xmlns="http://www.w3.org/2000/svg">
<g clip-path="url(#clip0_67_22126)">
<path d="M941.906 52.3059C943.649 52.3059 945.062 50.8943 945.062 49.153C945.062 47.4116 943.649 46 941.906 46C940.163 46 938.75 47.4116 938.75 49.153C938.75 50.8943 940.163 52.3059 941.906 52.3059Z" fill="#45259A"/>
<path d="M853.531 52.3059C855.274 52.3059 856.688 50.8943 856.688 49.153C856.688 47.4116 855.274 46 853.531 46C851.788 46 850.375 47.4116 850.375 49.153C850.375 50.8943 851.788 52.3059 853.531 52.3059Z" fill="#45259A"/>
<path d="M676.781 52.3059C678.524 52.3059 679.938 50.8943 679.938 49.153C679.938 47.4116 678.524 46 676.781 46C675.038 46 673.625 47.4116 673.625 49.153C673.625 50.8943 675.038 52.3059 676.781 52.3059Z" fill="#45259A"/>
<path d="M588.406 52.3059C590.149 52.3059 591.562 50.8943 591.562 49.153C591.562 47.4116 590.149 46 588.406 46C586.663 46 585.25 47.4116 585.25 49.153C585.25 50.8943 586.663 52.3059 588.406 52.3059Z" fill="#45259A"/>
<path d="M500.031 52.3059C501.774 52.3059 503.188 50.8943 503.188 49.153C503.188 47.4116 501.774 46 500.031 46C498.288 46 496.875 47.4116 496.875 49.153C496.875 50.8943 498.288 52.3059 500.031 52.3059Z" fill="#45259A"/>
<path d="M411.656 52.3059C413.399 52.3059 414.812 50.8943 414.812 49.153C414.812 47.4116 413.399 46 411.656 46C409.913 46 408.5 47.4116 408.5 49.153C408.5 50.8943 409.913 52.3059 411.656 52.3059Z" fill="#45259A"/>
<path d="M323.281 52.3059C325.024 52.3059 326.438 50.8943 326.438 49.153C326.438 47.4116 325.024 46 323.281 46C321.538 46 320.125 47.4116 320.125 49.153C320.125 50.8943 321.538 52.3059 323.281 52.3059Z" fill="#45259A"/>
<path d="M234.906 52.3059C236.649 52.3059 238.062 50.8943 238.062 49.153C238.062 47.4116 236.649 46 234.906 46C233.163 46 231.75 47.4116 231.75 49.153C231.75 50.8943 233.163 52.3059 234.906 52.3059Z" fill="#45259A"/>
<path d="M146.531 52.3059C148.274 52.3059 149.688 50.8943 149.688 49.153C149.688 47.4116 148.274 46 146.531 46C144.788 46 143.375 47.4116 143.375 49.153C143.375 50.8943 144.788 52.3059 146.531 52.3059Z" fill="#45259A"/>
<path d="M58.1562 52.3059C59.8994 52.3059 61.3125 50.8943 61.3125 49.153C61.3125 47.4116 59.8994 46 58.1562 46C56.4131 46 55 47.4116 55 49.153C55 50.8943 56.4131 52.3059 58.1562 52.3059Z" fill="#45259A"/>
<path d="M765.156 52.3059C766.899 52.3059 768.312 50.8943 768.312 49.153C768.312 47.4116 766.899 46 765.156 46C763.413 46 762 47.4116 762 49.153C762 50.8943 763.413 52.3059 765.156 52.3059Z" fill="#45259A"/>
<path d="M941.906 134.283C943.649 134.283 945.062 132.871 945.062 131.13C945.062 129.389 943.649 127.977 941.906 127.977C940.163 127.977 938.75 129.389 938.75 131.13C938.75 132.871 940.163 134.283 941.906 134.283Z" fill="#45259A"/>
<path d="M853.531 134.283C855.274 134.283 856.688 132.871 856.688 131.13C856.688 129.389 855.274 127.977 853.531 127.977C851.788 127.977 850.375 129.389 850.375 131.13C850.375 132.871 851.788 134.283 853.531 134.283Z" fill="#45259A"/>
<path d="M676.781 134.283C678.524 134.283 679.938 132.871 679.938 131.13C679.938 129.389 678.524 127.977 676.781 127.977C675.038 127.977 673.625 129.389 673.625 131.13C673.625 132.871 675.038 134.283 676.781 134.283Z" fill="#45259A"/>
<path d="M588.406 134.283C590.149 134.283 591.562 132.871 591.562 131.13C591.562 129.389 590.149 127.977 588.406 127.977C586.663 127.977 585.25 129.389 585.25 131.13C585.25 132.871 586.663 134.283 588.406 134.283Z" fill="#45259A"/>
<path d="M500.031 134.283C501.774 134.283 503.188 132.871 503.188 131.13C503.188 129.389 501.774 127.977 500.031 127.977C498.288 127.977 496.875 129.389 496.875 131.13C496.875 132.871 498.288 134.283 500.031 134.283Z" fill="#45259A"/>
<path d="M411.656 134.283C413.399 134.283 414.812 132.871 414.812 131.13C414.812 129.389 413.399 127.977 411.656 127.977C409.913 127.977 408.5 129.389 408.5 131.13C408.5 132.871 409.913 134.283 411.656 134.283Z" fill="#45259A"/>
<path d="M323.281 134.283C325.024 134.283 326.438 132.871 326.438 131.13C326.438 129.389 325.024 127.977 323.281 127.977C321.538 127.977 320.125 129.389 320.125 131.13C320.125 132.871 321.538 134.283 323.281 134.283Z" fill="#45259A"/>
<path d="M234.906 134.283C236.649 134.283 238.062 132.871 238.062 131.13C238.062 129.389 236.649 127.977 234.906 127.977C233.163 127.977 231.75 129.389 231.75 131.13C231.75 132.871 233.163 134.283 234.906 134.283Z" fill="#45259A"/>
<path d="M146.531 134.283C148.274 134.283 149.688 132.871 149.688 131.13C149.688 129.389 148.274 127.977 146.531 127.977C144.788 127.977 143.375 129.389 143.375 131.13C143.375 132.871 144.788 134.283 146.531 134.283Z" fill="#45259A"/>
<path d="M58.1562 134.283C59.8994 134.283 61.3125 132.871 61.3125 131.13C61.3125 129.389 59.8994 127.977 58.1562 127.977C56.4131 127.977 55 129.389 55 131.13C55 132.871 56.4131 134.283 58.1562 134.283Z" fill="#45259A"/>
<path d="M765.156 134.283C766.899 134.283 768.312 132.871 768.312 131.13C768.312 129.389 766.899 127.977 765.156 127.977C763.413 127.977 762 129.389 762 131.13C762 132.871 763.413 134.283 765.156 134.283Z" fill="#45259A"/>
<path d="M941.906 216.26C943.649 216.26 945.062 214.849 945.062 213.107C945.062 211.366 943.649 209.954 941.906 209.954C940.163 209.954 938.75 211.366 938.75 213.107C938.75 214.849 940.163 216.26 941.906 216.26Z" fill="#45259A"/>
<path d="M853.531 216.26C855.274 216.26 856.688 214.849 856.688 213.107C856.688 211.366 855.274 209.954 853.531 209.954C851.788 209.954 850.375 211.366 850.375 213.107C850.375 214.849 851.788 216.26 853.531 216.26Z" fill="#45259A"/>
<path d="M676.781 216.26C678.524 216.26 679.938 214.849 679.938 213.107C679.938 211.366 678.524 209.954 676.781 209.954C675.038 209.954 673.625 211.366 673.625 213.107C673.625 214.849 675.038 216.26 676.781 216.26Z" fill="#45259A"/>
<path d="M588.406 216.26C590.149 216.26 591.562 214.849 591.562 213.107C591.562 211.366 590.149 209.954 588.406 209.954C586.663 209.954 585.25 211.366 585.25 213.107C585.25 214.849 586.663 216.26 588.406 216.26Z" fill="#45259A"/>
<path d="M500.031 216.26C501.774 216.26 503.188 214.849 503.188 213.107C503.188 211.366 501.774 209.954 500.031 209.954C498.288 209.954 496.875 211.366 496.875 213.107C496.875 214.849 498.288 216.26 500.031 216.26Z" fill="#45259A"/>
<path d="M411.656 216.26C413.399 216.26 414.812 214.849 414.812 213.107C414.812 211.366 413.399 209.954 411.656 209.954C409.913 209.954 408.5 211.366 408.5 213.107C408.5 214.849 409.913 216.26 411.656 216.26Z" fill="#45259A"/>
<path d="M323.281 216.26C325.024 216.26 326.438 214.849 326.438 213.107C326.438 211.366 325.024 209.954 323.281 209.954C321.538 209.954 320.125 211.366 320.125 213.107C320.125 214.849 321.538 216.26 323.281 216.26Z" fill="#45259A"/>
<path d="M234.906 216.26C236.649 216.26 238.062 214.849 238.062 213.107C238.062 211.366 236.649 209.954 234.906 209.954C233.163 209.954 231.75 211.366 231.75 213.107C231.75 214.849 233.163 216.26 234.906 216.26Z" fill="#45259A"/>
<path d="M146.531 216.26C148.274 216.26 149.688 214.849 149.688 213.107C149.688 211.366 148.274 209.954 146.531 209.954C144.788 209.954 143.375 211.366 143.375 213.107C143.375 214.849 144.788 216.26 146.531 216.26Z" fill="#45259A"/>
<path d="M58.1562 216.26C59.8994 216.26 61.3125 214.849 61.3125 213.107C61.3125 211.366 59.8994 209.954 58.1562 209.954C56.4131 209.954 55 211.366 55 213.107C55 214.849 56.4131 216.26 58.1562 216.26Z" fill="#45259A"/>
<path d="M765.156 216.26C766.899 216.26 768.312 214.849 768.312 213.107C768.312 211.366 766.899 209.954 765.156 209.954C763.413 209.954 762 211.366 762 213.107C762 214.849 763.413 216.26 765.156 216.26Z" fill="#45259A"/>
<path d="M941.906 298.237C943.649 298.237 945.062 296.825 945.062 295.084C945.062 293.343 943.649 291.931 941.906 291.931C940.163 291.931 938.75 293.343 938.75 295.084C938.75 296.825 940.163 298.237 941.906 298.237Z" fill="#45259A"/>
<path d="M853.531 298.237C855.274 298.237 856.688 296.825 856.688 295.084C856.688 293.343 855.274 291.931 853.531 291.931C851.788 291.931 850.375 293.343 850.375 295.084C850.375 296.825 851.788 298.237 853.531 298.237Z" fill="#45259A"/>
<path d="M676.781 298.237C678.524 298.237 679.938 296.825 679.938 295.084C679.938 293.343 678.524 291.931 676.781 291.931C675.038 291.931 673.625 293.343 673.625 295.084C673.625 296.825 675.038 298.237 676.781 298.237Z" fill="#45259A"/>
<path d="M588.406 298.237C590.149 298.237 591.562 296.825 591.562 295.084C591.562 293.343 590.149 291.931 588.406 291.931C586.663 291.931 585.25 293.343 585.25 295.084C585.25 296.825 586.663 298.237 588.406 298.237Z" fill="#45259A"/>
<path d="M500.031 298.237C501.774 298.237 503.188 296.825 503.188 295.084C503.188 293.343 501.774 291.931 500.031 291.931C498.288 291.931 496.875 293.343 496.875 295.084C496.875 296.825 498.288 298.237 500.031 298.237Z" fill="#45259A"/>
<path d="M411.656 298.237C413.399 298.237 414.812 296.825 414.812 295.084C414.812 293.343 413.399 291.931 411.656 291.931C409.913 291.931 408.5 293.343 408.5 295.084C408.5 296.825 409.913 298.237 411.656 298.237Z" fill="#45259A"/>
<path d="M323.281 298.237C325.024 298.237 326.438 296.825 326.438 295.084C326.438 293.343 325.024 291.931 323.281 291.931C321.538 291.931 320.125 293.343 320.125 295.084C320.125 296.825 321.538 298.237 323.281 298.237Z" fill="#45259A"/>
<path d="M234.906 298.237C236.649 298.237 238.062 296.825 238.062 295.084C238.062 293.343 236.649 291.931 234.906 291.931C233.163 291.931 231.75 293.343 231.75 295.084C231.75 296.825 233.163 298.237 234.906 298.237Z" fill="#45259A"/>
<path d="M146.531 298.237C148.274 298.237 149.688 296.825 149.688 295.084C149.688 293.343 148.274 291.931 146.531 291.931C144.788 291.931 143.375 293.343 143.375 295.084C143.375 296.825 144.788 298.237 146.531 298.237Z" fill="#45259A"/>
<path d="M58.1562 298.237C59.8994 298.237 61.3125 296.825 61.3125 295.084C61.3125 293.343 59.8994 291.931 58.1562 291.931C56.4131 291.931 55 293.343 55 295.084C55 296.825 56.4131 298.237 58.1562 298.237Z" fill="#45259A"/>
<path d="M765.156 298.237C766.899 298.237 768.312 296.825 768.312 295.084C768.312 293.343 766.899 291.931 765.156 291.931C763.413 291.931 762 293.343 762 295.084C762 296.825 763.413 298.237 765.156 298.237Z" fill="#45259A"/>
<path d="M941.906 380.214C943.649 380.214 945.062 378.803 945.062 377.061C945.062 375.32 943.649 373.908 941.906 373.908C940.163 373.908 938.75 375.32 938.75 377.061C938.75 378.803 940.163 380.214 941.906 380.214Z" fill="#45259A"/>
<path d="M853.531 380.214C855.274 380.214 856.688 378.803 856.688 377.061C856.688 375.32 855.274 373.908 853.531 373.908C851.788 373.908 850.375 375.32 850.375 377.061C850.375 378.803 851.788 380.214 853.531 380.214Z" fill="#45259A"/>
<path d="M676.781 380.214C678.524 380.214 679.938 378.803 679.938 377.061C679.938 375.32 678.524 373.908 676.781 373.908C675.038 373.908 673.625 375.32 673.625 377.061C673.625 378.803 675.038 380.214 676.781 380.214Z" fill="#45259A"/>
<path d="M588.406 380.214C590.149 380.214 591.562 378.803 591.562 377.061C591.562 375.32 590.149 373.908 588.406 373.908C586.663 373.908 585.25 375.32 585.25 377.061C585.25 378.803 586.663 380.214 588.406 380.214Z" fill="#45259A"/>
<path d="M500.031 380.214C501.774 380.214 503.188 378.803 503.188 377.061C503.188 375.32 501.774 373.908 500.031 373.908C498.288 373.908 496.875 375.32 496.875 377.061C496.875 378.803 498.288 380.214 500.031 380.214Z" fill="#45259A"/>
<path d="M411.656 380.214C413.399 380.214 414.812 378.803 414.812 377.061C414.812 375.32 413.399 373.908 411.656 373.908C409.913 373.908 408.5 375.32 408.5 377.061C408.5 378.803 409.913 380.214 411.656 380.214Z" fill="#45259A"/>
<path d="M323.281 380.214C325.024 380.214 326.438 378.803 326.438 377.061C326.438 375.32 325.024 373.908 323.281 373.908C321.538 373.908 320.125 375.32 320.125 377.061C320.125 378.803 321.538 380.214 323.281 380.214Z" fill="#45259A"/>
<path d="M234.906 380.214C236.649 380.214 238.062 378.803 238.062 377.061C238.062 375.32 236.649 373.908 234.906 373.908C233.163 373.908 231.75 375.32 231.75 377.061C231.75 378.803 233.163 380.214 234.906 380.214Z" fill="#45259A"/>
<path d="M146.531 380.214C148.274 380.214 149.688 378.803 149.688 377.061C149.688 375.32 148.274 373.908 146.531 373.908C144.788 373.908 143.375 375.32 143.375 377.061C143.375 378.803 144.788 380.214 146.531 380.214Z" fill="#45259A"/>
<path d="M58.1562 380.214C59.8994 380.214 61.3125 378.803 61.3125 377.061C61.3125 375.32 59.8994 373.908 58.1562 373.908C56.4131 373.908 55 375.32 55 377.061C55 378.803 56.4131 380.214 58.1562 380.214Z" fill="#45259A"/>
<path d="M765.156 380.214C766.899 380.214 768.312 378.803 768.312 377.061C768.312 375.32 766.899 373.908 765.156 373.908C763.413 373.908 762 375.32 762 377.061C762 378.803 763.413 380.214 765.156 380.214Z" fill="#45259A"/>
<path d="M941.906 462.191C943.649 462.191 945.062 460.78 945.062 459.038C945.062 457.297 943.649 455.885 941.906 455.885C940.163 455.885 938.75 457.297 938.75 459.038C938.75 460.78 940.163 462.191 941.906 462.191Z" fill="#45259A"/>
<path d="M853.531 462.191C855.274 462.191 856.688 460.78 856.688 459.038C856.688 457.297 855.274 455.885 853.531 455.885C851.788 455.885 850.375 457.297 850.375 459.038C850.375 460.78 851.788 462.191 853.531 462.191Z" fill="#45259A"/>
<path d="M676.781 462.191C678.524 462.191 679.938 460.78 679.938 459.038C679.938 457.297 678.524 455.885 676.781 455.885C675.038 455.885 673.625 457.297 673.625 459.038C673.625 460.78 675.038 462.191 676.781 462.191Z" fill="#45259A"/>
<path d="M588.406 462.191C590.149 462.191 591.562 460.78 591.562 459.038C591.562 457.297 590.149 455.885 588.406 455.885C586.663 455.885 585.25 457.297 585.25 459.038C585.25 460.78 586.663 462.191 588.406 462.191Z" fill="#45259A"/>
<path d="M500.031 462.191C501.774 462.191 503.188 460.78 503.188 459.038C503.188 457.297 501.774 455.885 500.031 455.885C498.288 455.885 496.875 457.297 496.875 459.038C496.875 460.78 498.288 462.191 500.031 462.191Z" fill="#45259A"/>
<path d="M411.656 462.191C413.399 462.191 414.812 460.78 414.812 459.038C414.812 457.297 413.399 455.885 411.656 455.885C409.913 455.885 408.5 457.297 408.5 459.038C408.5 460.78 409.913 462.191 411.656 462.191Z" fill="#45259A"/>
<path d="M323.281 462.191C325.024 462.191 326.438 460.78 326.438 459.038C326.438 457.297 325.024 455.885 323.281 455.885C321.538 455.885 320.125 457.297 320.125 459.038C320.125 460.78 321.538 462.191 323.281 462.191Z" fill="#45259A"/>
<path d="M234.906 462.191C236.649 462.191 238.062 460.78 238.062 459.038C238.062 457.297 236.649 455.885 234.906 455.885C233.163 455.885 231.75 457.297 231.75 459.038C231.75 460.78 233.163 462.191 234.906 462.191Z" fill="#45259A"/>
<path d="M146.531 462.191C148.274 462.191 149.688 460.78 149.688 459.038C149.688 457.297 148.274 455.885 146.531 455.885C144.788 455.885 143.375 457.297 143.375 459.038C143.375 460.78 144.788 462.191 146.531 462.191Z" fill="#45259A"/>
<path d="M58.1562 462.191C59.8994 462.191 61.3125 460.78 61.3125 459.038C61.3125 457.297 59.8994 455.885 58.1562 455.885C56.4131 455.885 55 457.297 55 459.038C55 460.78 56.4131 462.191 58.1562 462.191Z" fill="#45259A"/>
<path d="M765.156 462.191C766.899 462.191 768.312 460.78 768.312 459.038C768.312 457.297 766.899 455.885 765.156 455.885C763.413 455.885 762 457.297 762 459.038C762 460.78 763.413 462.191 765.156 462.191Z" fill="#45259A"/>
<path d="M941.906 544.169C943.649 544.169 945.062 542.757 945.062 541.016C945.062 539.274 943.649 537.863 941.906 537.863C940.163 537.863 938.75 539.274 938.75 541.016C938.75 542.757 940.163 544.169 941.906 544.169Z" fill="#45259A"/>
<path d="M853.531 544.169C855.274 544.169 856.688 542.757 856.688 541.016C856.688 539.274 855.274 537.863 853.531 537.863C851.788 537.863 850.375 539.274 850.375 541.016C850.375 542.757 851.788 544.169 853.531 544.169Z" fill="#45259A"/>
<path d="M676.781 544.169C678.524 544.169 679.938 542.757 679.938 541.016C679.938 539.274 678.524 537.863 676.781 537.863C675.038 537.863 673.625 539.274 673.625 541.016C673.625 542.757 675.038 544.169 676.781 544.169Z" fill="#45259A"/>
<path d="M588.406 544.169C590.149 544.169 591.562 542.757 591.562 541.016C591.562 539.274 590.149 537.863 588.406 537.863C586.663 537.863 585.25 539.274 585.25 541.016C585.25 542.757 586.663 544.169 588.406 544.169Z" fill="#45259A"/>
<path d="M500.031 544.169C501.774 544.169 503.188 542.757 503.188 541.016C503.188 539.274 501.774 537.863 500.031 537.863C498.288 537.863 496.875 539.274 496.875 541.016C496.875 542.757 498.288 544.169 500.031 544.169Z" fill="#45259A"/>
<path d="M411.656 544.169C413.399 544.169 414.812 542.757 414.812 541.016C414.812 539.274 413.399 537.863 411.656 537.863C409.913 537.863 408.5 539.274 408.5 541.016C408.5 542.757 409.913 544.169 411.656 544.169Z" fill="#45259A"/>
<path d="M323.281 544.169C325.024 544.169 326.438 542.757 326.438 541.016C326.438 539.274 325.024 537.863 323.281 537.863C321.538 537.863 320.125 539.274 320.125 541.016C320.125 542.757 321.538 544.169 323.281 544.169Z" fill="#45259A"/>
<path d="M234.906 544.169C236.649 544.169 238.062 542.757 238.062 541.016C238.062 539.274 236.649 537.863 234.906 537.863C233.163 537.863 231.75 539.274 231.75 541.016C231.75 542.757 233.163 544.169 234.906 544.169Z" fill="#45259A"/>
<path d="M146.531 544.169C148.274 544.169 149.688 542.757 149.688 541.016C149.688 539.274 148.274 537.863 146.531 537.863C144.788 537.863 143.375 539.274 143.375 541.016C143.375 542.757 144.788 544.169 146.531 544.169Z" fill="#45259A"/>
<path d="M58.1562 544.169C59.8994 544.169 61.3125 542.757 61.3125 541.016C61.3125 539.274 59.8994 537.863 58.1562 537.863C56.4131 537.863 55 539.274 55 541.016C55 542.757 56.4131 544.169 58.1562 544.169Z" fill="#45259A"/>
<path d="M765.156 544.169C766.899 544.169 768.312 542.757 768.312 541.016C768.312 539.274 766.899 537.863 765.156 537.863C763.413 537.863 762 539.274 762 541.016C762 542.757 763.413 544.169 765.156 544.169Z" fill="#45259A"/>
<path d="M941.906 626.146C943.649 626.146 945.062 624.734 945.062 622.993C945.062 621.251 943.649 619.84 941.906 619.84C940.163 619.84 938.75 621.251 938.75 622.993C938.75 624.734 940.163 626.146 941.906 626.146Z" fill="#45259A"/>
<path d="M853.531 626.146C855.274 626.146 856.688 624.734 856.688 622.993C856.688 621.251 855.274 619.84 853.531 619.84C851.788 619.84 850.375 621.251 850.375 622.993C850.375 624.734 851.788 626.146 853.531 626.146Z" fill="#45259A"/>
<path d="M676.781 626.146C678.524 626.146 679.938 624.734 679.938 622.993C679.938 621.251 678.524 619.84 676.781 619.84C675.038 619.84 673.625 621.251 673.625 622.993C673.625 624.734 675.038 626.146 676.781 626.146Z" fill="#45259A"/>
<path d="M588.406 626.146C590.149 626.146 591.562 624.734 591.562 622.993C591.562 621.251 590.149 619.84 588.406 619.84C586.663 619.84 585.25 621.251 585.25 622.993C585.25 624.734 586.663 626.146 588.406 626.146Z" fill="#45259A"/>
<path d="M500.031 626.146C501.774 626.146 503.188 624.734 503.188 622.993C503.188 621.251 501.774 619.84 500.031 619.84C498.288 619.84 496.875 621.251 496.875 622.993C496.875 624.734 498.288 626.146 500.031 626.146Z" fill="#45259A"/>
<path d="M411.656 626.146C413.399 626.146 414.812 624.734 414.812 622.993C414.812 621.251 413.399 619.84 411.656 619.84C409.913 619.84 408.5 621.251 408.5 622.993C408.5 624.734 409.913 626.146 411.656 626.146Z" fill="#45259A"/>
<path d="M323.281 626.146C325.024 626.146 326.438 624.734 326.438 622.993C326.438 621.251 325.024 619.84 323.281 619.84C321.538 619.84 320.125 621.251 320.125 622.993C320.125 624.734 321.538 626.146 323.281 626.146Z" fill="#45259A"/>
<path d="M234.906 626.146C236.649 626.146 238.062 624.734 238.062 622.993C238.062 621.251 236.649 619.84 234.906 619.84C233.163 619.84 231.75 621.251 231.75 622.993C231.75 624.734 233.163 626.146 234.906 626.146Z" fill="#45259A"/>
<path d="M146.531 626.146C148.274 626.146 149.688 624.734 149.688 622.993C149.688 621.251 148.274 619.84 146.531 619.84C144.788 619.84 143.375 621.251 143.375 622.993C143.375 624.734 144.788 626.146 146.531 626.146Z" fill="#45259A"/>
<path d="M58.1562 626.146C59.8994 626.146 61.3125 624.734 61.3125 622.993C61.3125 621.251 59.8994 619.84 58.1562 619.84C56.4131 619.84 55 621.251 55 622.993C55 624.734 56.4131 626.146 58.1562 626.146Z" fill="#45259A"/>
<path d="M765.156 626.146C766.899 626.146 768.312 624.734 768.312 622.993C768.312 621.251 766.899 619.84 765.156 619.84C763.413 619.84 762 621.251 762 622.993C762 624.734 763.413 626.146 765.156 626.146Z" fill="#45259A"/>
<path d="M941.906 708.123C943.649 708.123 945.062 706.711 945.062 704.97C945.062 703.229 943.649 701.817 941.906 701.817C940.163 701.817 938.75 703.229 938.75 704.97C938.75 706.711 940.163 708.123 941.906 708.123Z" fill="#45259A"/>
<path d="M853.531 708.123C855.274 708.123 856.688 706.711 856.688 704.97C856.688 703.229 855.274 701.817 853.531 701.817C851.788 701.817 850.375 703.229 850.375 704.97C850.375 706.711 851.788 708.123 853.531 708.123Z" fill="#45259A"/>
<path d="M676.781 708.123C678.524 708.123 679.938 706.711 679.938 704.97C679.938 703.229 678.524 701.817 676.781 701.817C675.038 701.817 673.625 703.229 673.625 704.97C673.625 706.711 675.038 708.123 676.781 708.123Z" fill="#45259A"/>
<path d="M588.406 708.123C590.149 708.123 591.562 706.711 591.562 704.97C591.562 703.229 590.149 701.817 588.406 701.817C586.663 701.817 585.25 703.229 585.25 704.97C585.25 706.711 586.663 708.123 588.406 708.123Z" fill="#45259A"/>
<path d="M500.031 708.123C501.774 708.123 503.188 706.711 503.188 704.97C503.188 703.229 501.774 701.817 500.031 701.817C498.288 701.817 496.875 703.229 496.875 704.97C496.875 706.711 498.288 708.123 500.031 708.123Z" fill="#45259A"/>
<path d="M411.656 708.123C413.399 708.123 414.812 706.711 414.812 704.97C414.812 703.229 413.399 701.817 411.656 701.817C409.913 701.817 408.5 703.229 408.5 704.97C408.5 706.711 409.913 708.123 411.656 708.123Z" fill="#45259A"/>
<path d="M323.281 708.123C325.024 708.123 326.438 706.711 326.438 704.97C326.438 703.229 325.024 701.817 323.281 701.817C321.538 701.817 320.125 703.229 320.125 704.97C320.125 706.711 321.538 708.123 323.281 708.123Z" fill="#45259A"/>
<path d="M234.906 708.123C236.649 708.123 238.062 706.711 238.062 704.97C238.062 703.229 236.649 701.817 234.906 701.817C233.163 701.817 231.75 703.229 231.75 704.97C231.75 706.711 233.163 708.123 234.906 708.123Z" fill="#45259A"/>
<path d="M146.531 708.123C148.274 708.123 149.688 706.711 149.688 704.97C149.688 703.229 148.274 701.817 146.531 701.817C144.788 701.817 143.375 703.229 143.375 704.97C143.375 706.711 144.788 708.123 146.531 708.123Z" fill="#45259A"/>
<path d="M58.1562 708.123C59.8994 708.123 61.3125 706.711 61.3125 704.97C61.3125 703.229 59.8994 701.817 58.1562 701.817C56.4131 701.817 55 703.229 55 704.97C55 706.711 56.4131 708.123 58.1562 708.123Z" fill="#45259A"/>
<path d="M765.156 708.123C766.899 708.123 768.312 706.711 768.312 704.97C768.312 703.229 766.899 701.817 765.156 701.817C763.413 701.817 762 703.229 762 704.97C762 706.711 763.413 708.123 765.156 708.123Z" fill="#45259A"/>
<path d="M941.906 790.1C943.649 790.1 945.062 788.688 945.062 786.947C945.062 785.206 943.649 783.794 941.906 783.794C940.163 783.794 938.75 785.206 938.75 786.947C938.75 788.688 940.163 790.1 941.906 790.1Z" fill="#45259A"/>
<path d="M853.531 790.1C855.274 790.1 856.688 788.688 856.688 786.947C856.688 785.206 855.274 783.794 853.531 783.794C851.788 783.794 850.375 785.206 850.375 786.947C850.375 788.688 851.788 790.1 853.531 790.1Z" fill="#45259A"/>
<path d="M676.781 790.1C678.524 790.1 679.938 788.688 679.938 786.947C679.938 785.206 678.524 783.794 676.781 783.794C675.038 783.794 673.625 785.206 673.625 786.947C673.625 788.688 675.038 790.1 676.781 790.1Z" fill="#45259A"/>
<path d="M588.406 790.1C590.149 790.1 591.562 788.688 591.562 786.947C591.562 785.206 590.149 783.794 588.406 783.794C586.663 783.794 585.25 785.206 585.25 786.947C585.25 788.688 586.663 790.1 588.406 790.1Z" fill="#45259A"/>
<path d="M500.031 790.1C501.774 790.1 503.188 788.688 503.188 786.947C503.188 785.206 501.774 783.794 500.031 783.794C498.288 783.794 496.875 785.206 496.875 786.947C496.875 788.688 498.288 790.1 500.031 790.1Z" fill="#45259A"/>
<path d="M411.656 790.1C413.399 790.1 414.812 788.688 414.812 786.947C414.812 785.206 413.399 783.794 411.656 783.794C409.913 783.794 408.5 785.206 408.5 786.947C408.5 788.688 409.913 790.1 411.656 790.1Z" fill="#45259A"/>
<path d="M323.281 790.1C325.024 790.1 326.438 788.688 326.438 786.947C326.438 785.206 325.024 783.794 323.281 783.794C321.538 783.794 320.125 785.206 320.125 786.947C320.125 788.688 321.538 790.1 323.281 790.1Z" fill="#45259A"/>
<path d="M234.906 790.1C236.649 790.1 238.062 788.688 238.062 786.947C238.062 785.206 236.649 783.794 234.906 783.794C233.163 783.794 231.75 785.206 231.75 786.947C231.75 788.688 233.163 790.1 234.906 790.1Z" fill="#45259A"/>
<path d="M146.531 790.1C148.274 790.1 149.688 788.688 149.688 786.947C149.688 785.206 148.274 783.794 146.531 783.794C144.788 783.794 143.375 785.206 143.375 786.947C143.375 788.688 144.788 790.1 146.531 790.1Z" fill="#45259A"/>
<path d="M58.1562 790.1C59.8994 790.1 61.3125 788.688 61.3125 786.947C61.3125 785.206 59.8994 783.794 58.1562 783.794C56.4131 783.794 55 785.206 55 786.947C55 788.688 56.4131 790.1 58.1562 790.1Z" fill="#45259A"/>
<path d="M765.156 790.1C766.899 790.1 768.312 788.688 768.312 786.947C768.312 785.206 766.899 783.794 765.156 783.794C763.413 783.794 762 785.206 762 786.947C762 788.688 763.413 790.1 765.156 790.1Z" fill="#45259A"/>
<path d="M941.906 872.077C943.649 872.077 945.062 870.666 945.062 868.924C945.062 867.183 943.649 865.771 941.906 865.771C940.163 865.771 938.75 867.183 938.75 868.924C938.75 870.666 940.163 872.077 941.906 872.077Z" fill="#45259A"/>
<path d="M853.531 872.077C855.274 872.077 856.688 870.666 856.688 868.924C856.688 867.183 855.274 865.771 853.531 865.771C851.788 865.771 850.375 867.183 850.375 868.924C850.375 870.666 851.788 872.077 853.531 872.077Z" fill="#45259A"/>
<path d="M676.781 872.077C678.524 872.077 679.938 870.666 679.938 868.924C679.938 867.183 678.524 865.771 676.781 865.771C675.038 865.771 673.625 867.183 673.625 868.924C673.625 870.666 675.038 872.077 676.781 872.077Z" fill="#45259A"/>
<path d="M588.406 872.077C590.149 872.077 591.562 870.666 591.562 868.924C591.562 867.183 590.149 865.771 588.406 865.771C586.663 865.771 585.25 867.183 585.25 868.924C585.25 870.666 586.663 872.077 588.406 872.077Z" fill="#45259A"/>
<path d="M500.031 872.077C501.774 872.077 503.188 870.666 503.188 868.924C503.188 867.183 501.774 865.771 500.031 865.771C498.288 865.771 496.875 867.183 496.875 868.924C496.875 870.666 498.288 872.077 500.031 872.077Z" fill="#45259A"/>
<path d="M411.656 872.077C413.399 872.077 414.812 870.666 414.812 868.924C414.812 867.183 413.399 865.771 411.656 865.771C409.913 865.771 408.5 867.183 408.5 868.924C408.5 870.666 409.913 872.077 411.656 872.077Z" fill="#45259A"/>
<path d="M323.281 872.077C325.024 872.077 326.438 870.666 326.438 868.924C326.438 867.183 325.024 865.771 323.281 865.771C321.538 865.771 320.125 867.183 320.125 868.924C320.125 870.666 321.538 872.077 323.281 872.077Z" fill="#45259A"/>
<path d="M234.906 872.077C236.649 872.077 238.062 870.666 238.062 868.924C238.062 867.183 236.649 865.771 234.906 865.771C233.163 865.771 231.75 867.183 231.75 868.924C231.75 870.666 233.163 872.077 234.906 872.077Z" fill="#45259A"/>
<path d="M146.531 872.077C148.274 872.077 149.688 870.666 149.688 868.924C149.688 867.183 148.274 865.771 146.531 865.771C144.788 865.771 143.375 867.183 143.375 868.924C143.375 870.666 144.788 872.077 146.531 872.077Z" fill="#45259A"/>
<path d="M58.1562 872.077C59.8994 872.077 61.3125 870.666 61.3125 868.924C61.3125 867.183 59.8994 865.771 58.1562 865.771C56.4131 865.771 55 867.183 55 868.924C55 870.666 56.4131 872.077 58.1562 872.077Z" fill="#45259A"/>
<path d="M765.156 872.077C766.899 872.077 768.312 870.666 768.312 868.924C768.312 867.183 766.899 865.771 765.156 865.771C763.413 865.771 762 867.183 762 868.924C762 870.666 763.413 872.077 765.156 872.077Z" fill="#45259A"/>
<path d="M941.906 954.054C943.649 954.054 945.062 952.643 945.062 950.901C945.062 949.16 943.649 947.749 941.906 947.749C940.163 947.749 938.75 949.16 938.75 950.901C938.75 952.643 940.163 954.054 941.906 954.054Z" fill="#45259A"/>
<path d="M853.531 954.054C855.274 954.054 856.688 952.643 856.688 950.901C856.688 949.16 855.274 947.749 853.531 947.749C851.788 947.749 850.375 949.16 850.375 950.901C850.375 952.643 851.788 954.054 853.531 954.054Z" fill="#45259A"/>
<path d="M676.781 954.054C678.524 954.054 679.938 952.643 679.938 950.901C679.938 949.16 678.524 947.749 676.781 947.749C675.038 947.749 673.625 949.16 673.625 950.901C673.625 952.643 675.038 954.054 676.781 954.054Z" fill="#45259A"/>
<path d="M588.406 954.054C590.149 954.054 591.562 952.643 591.562 950.901C591.562 949.16 590.149 947.749 588.406 947.749C586.663 947.749 585.25 949.16 585.25 950.901C585.25 952.643 586.663 954.054 588.406 954.054Z" fill="#45259A"/>
<path d="M500.031 954.054C501.774 954.054 503.188 952.643 503.188 950.901C503.188 949.16 501.774 947.749 500.031 947.749C498.288 947.749 496.875 949.16 496.875 950.901C496.875 952.643 498.288 954.054 500.031 954.054Z" fill="#45259A"/>
<path d="M411.656 954.054C413.399 954.054 414.812 952.643 414.812 950.901C414.812 949.16 413.399 947.749 411.656 947.749C409.913 947.749 408.5 949.16 408.5 950.901C408.5 952.643 409.913 954.054 411.656 954.054Z" fill="#45259A"/>
<path d="M323.281 954.054C325.024 954.054 326.438 952.643 326.438 950.901C326.438 949.16 325.024 947.749 323.281 947.749C321.538 947.749 320.125 949.16 320.125 950.901C320.125 952.643 321.538 954.054 323.281 954.054Z" fill="#45259A"/>
<path d="M234.906 954.054C236.649 954.054 238.062 952.643 238.062 950.901C238.062 949.16 236.649 947.749 234.906 947.749C233.163 947.749 231.75 949.16 231.75 950.901C231.75 952.643 233.163 954.054 234.906 954.054Z" fill="#45259A"/>
<path d="M146.531 954.054C148.274 954.054 149.688 952.643 149.688 950.901C149.688 949.16 148.274 947.749 146.531 947.749C144.788 947.749 143.375 949.16 143.375 950.901C143.375 952.643 144.788 954.054 146.531 954.054Z" fill="#45259A"/>
<path d="M58.1562 954.054C59.8994 954.054 61.3125 952.643 61.3125 950.901C61.3125 949.16 59.8994 947.749 58.1562 947.749C56.4131 947.749 55 949.16 55 950.901C55 952.643 56.4131 954.054 58.1562 954.054Z" fill="#45259A"/>
<path d="M947.136 848.241L52.8652 849.851V260.684L947.136 259.074V848.241Z" fill="#45259A" stroke="#240C64" stroke-width="2" stroke-linecap="round" stroke-linejoin="round"/>
<g clip-path="url(#clip1_67_22126)">
<path d="M821 384.586L1063.74 500.178C1063.74 466.785 1032.67 478.6 1014.94 453.886C997.213 429.173 996.34 387.416 962.831 370.835C934.898 357.011 925.861 375.496 909.07 372.697C892.278 369.899 888.701 357.01 875.803 357.01C862.904 357.01 861.168 367.752 847.87 372.055C834.572 376.358 821.01 368.836 821.01 384.586H821Z" fill="#E96AE9" stroke="#240C64" stroke-width="2" stroke-miterlimit="10" stroke-linecap="round" stroke-linejoin="round"/>
<path d="M1063.74 500.167C1063.74 466.774 1032.67 478.589 1014.94 453.876C997.213 429.162 996.34 387.405 962.831 370.824C934.898 357 925.861 375.485 909.07 372.687C892.278 369.888 888.701 357 875.803 357C862.904 357 861.168 367.742 847.87 372.045C834.572 376.348 821.01 368.825 821.01 384.575" stroke="#240C64" stroke-width="2" stroke-miterlimit="10" stroke-linecap="round" stroke-linejoin="round"/>
<path d="M1049.91 493.592C1048.9 464.491 1021.74 474.055 1005.84 452.613C989.08 430.004 988.481 393.592 958.381 379.294C933.152 367.374 925.282 382.734 910.458 380.02C905.513 379.125 901.81 377.274 898.591 375.212C892.278 371.151 888.217 366.311 880.611 366.353C869.259 366.395 867.417 375.58 855.466 379.178C843.514 382.776 831.741 376.19 831.247 389.457" stroke="#240C64" stroke-width="2" stroke-miterlimit="10" stroke-linecap="round" stroke-linejoin="round"/>
<path d="M1036.09 487.006C1034.08 462.198 1010.76 469.531 996.74 451.34C980.917 430.835 980.622 399.757 953.931 387.763C931.416 377.736 924.714 389.962 911.847 387.352C907.576 386.49 904.304 384.87 901.379 383.081C895.698 379.609 892.058 375.611 885.398 375.695C875.593 375.79 873.646 383.407 863.041 386.3C852.436 389.194 842.452 383.544 841.463 394.328" stroke="#240C64" stroke-width="2" stroke-miterlimit="10" stroke-linecap="round" stroke-linejoin="round"/>
<path d="M1022.25 480.42C1019.23 459.904 999.737 465.028 987.617 450.067C972.72 431.666 972.772 405.869 949.469 396.221C929.69 388.047 924.135 397.2 913.225 394.685C909.637 393.854 906.807 392.465 904.166 390.95C899.127 388.057 895.886 384.933 890.184 385.038C881.925 385.196 879.884 391.235 870.615 393.423C862.02 395.443 853.161 390.898 851.678 399.199" stroke="#240C64" stroke-width="2" stroke-miterlimit="10" stroke-linecap="round" stroke-linejoin="round"/>
<path d="M1008.43 473.834C1004.4 457.6 988.659 460.567 978.517 448.784C964.493 432.508 964.914 412.013 945.019 404.68C927.954 398.389 923.567 404.428 914.624 402.008C911.71 401.219 909.321 400.051 906.975 398.82C902.578 396.516 899.748 394.244 894.992 394.391C888.28 394.601 886.155 399.094 878.211 400.556C871.204 401.85 863.893 398.263 861.915 404.07" stroke="#240C64" stroke-width="2" stroke-miterlimit="10" stroke-linecap="round" stroke-linejoin="round"/>
<path d="M994.604 467.248C989.564 455.307 977.507 456.159 969.417 447.511C956.202 433.392 957.055 418.189 940.569 413.139C926.218 408.752 922.999 411.677 916.013 409.331C913.782 408.584 911.826 407.626 909.774 406.679C906.029 404.943 903.588 403.544 899.79 403.723C894.624 403.975 892.425 406.953 885.797 407.668C880.389 408.257 874.603 405.606 872.152 408.931" stroke="#240C64" stroke-width="2" stroke-miterlimit="10" stroke-linecap="round" stroke-linejoin="round"/>
<path d="M980.779 460.662C974.74 453.013 966.261 451.835 960.316 446.238C947.775 434.402 949.185 424.376 936.129 421.609C924.482 419.136 922.441 418.936 917.412 416.664C915.866 415.959 914.351 415.212 912.583 414.549C909.49 413.381 907.439 412.845 904.608 413.076C900.989 413.371 898.727 414.433 893.404 414.802C889.616 415.065 885.345 412.971 882.399 413.813" stroke="#240C64" stroke-width="2" stroke-miterlimit="10" stroke-linecap="round" stroke-linejoin="round"/>
<path d="M966.943 454.086C936.422 439.557 944.197 430.793 931.667 430.078C920.126 429.415 921.998 424.081 915.37 422.429C908.742 420.778 907.943 425.996 892.603 418.694" stroke="#240C64" stroke-width="2" stroke-miterlimit="10" stroke-linecap="round" stroke-linejoin="round"/>
<path d="M269.687 876.716C282.881 852.161 268.614 833.739 247.12 833.739C225.626 833.739 215.421 813.328 208.972 799.357C202.522 785.385 170.434 771.213 156.094 804.196C141.754 837.179 153.737 873.287 181.428 890.646C209.119 908.005 253.969 905.954 269.677 876.716H269.687Z" fill="#E96AE9" stroke="#240C64" stroke-width="2" stroke-miterlimit="10" stroke-linecap="round" stroke-linejoin="round"/>
<path d="M269.687 876.716C282.881 852.161 268.614 833.739 247.12 833.739C225.626 833.739 215.421 813.328 208.972 799.357C202.522 785.385 170.434 771.213 156.094 804.196C149.087 820.325 148.498 837.589 153.117 853.002C157.735 868.415 167.572 881.966 181.428 890.646C195.495 899.462 213.632 903.292 230.213 901.261C246.794 899.231 261.828 891.34 269.677 876.716H269.687Z" stroke="#240C64" stroke-width="2" stroke-miterlimit="10" stroke-linecap="round" stroke-linejoin="round"/>
<path d="M208.424 806.847C202.764 793.949 174.189 781.661 161.943 810.782C155.957 824.985 155.536 840.156 159.629 853.686C163.658 867.048 172.159 878.799 184.1 886.364C196.252 894.065 211.875 897.327 226.215 895.843C240.555 894.36 254.148 887.816 261.165 874.812C272.738 853.318 260.345 837.326 241.691 837.137C223.038 836.948 213.885 819.294 208.424 806.847V806.847Z" stroke="#240C64" stroke-width="2" stroke-miterlimit="10" stroke-linecap="round" stroke-linejoin="round"/>
<path d="M207.868 814.338C203.007 802.502 177.936 792.108 167.773 817.379C162.796 829.667 162.554 842.734 166.131 854.38C169.561 865.68 176.726 875.643 186.773 882.092C197 888.678 210.13 891.372 222.207 890.435C234.285 889.499 246.469 884.302 252.644 872.918C262.607 854.486 252.087 840.935 236.253 840.546C220.429 840.156 212.349 825.259 207.868 814.349V814.338Z" stroke="#240C64" stroke-width="2" stroke-miterlimit="10" stroke-linecap="round" stroke-linejoin="round"/>
<path d="M207.309 821.819C203.248 811.035 181.681 802.545 173.601 823.965C169.645 834.328 169.603 845.291 172.622 855.065C175.473 864.302 181.281 872.466 189.424 877.8C197.735 883.281 208.372 885.417 218.188 885.007C228.824 884.554 238.777 880.767 244.111 871.004C252.454 855.633 243.806 844.512 230.813 843.923C217.82 843.334 210.834 831.182 207.309 821.808V821.819Z" stroke="#240C64" stroke-width="2" stroke-miterlimit="10" stroke-linecap="round" stroke-linejoin="round"/>
<path d="M206.752 829.31C203.512 819.567 185.479 813.013 179.43 830.551C176.516 838.999 176.631 847.858 179.114 855.749C181.376 862.934 185.848 869.289 192.086 873.518C198.325 877.748 206.637 879.515 214.18 879.589C222.87 879.683 231.108 877.253 235.59 869.099C242.355 856.801 235.537 848.1 225.374 847.321C215.211 846.543 209.341 837.116 206.752 829.299V829.31Z" stroke="#240C64" stroke-width="2" stroke-miterlimit="10" stroke-linecap="round" stroke-linejoin="round"/>
<path d="M206.194 836.8C203.816 828.079 189.234 823.46 185.257 837.148C183.363 843.681 183.647 850.425 185.604 856.453C187.267 861.577 190.412 866.132 194.747 869.257C199.082 872.382 204.931 873.686 210.17 874.191C216.956 874.854 223.427 873.75 227.067 867.206C232.212 857.968 227.277 851.708 219.944 850.73C212.611 849.752 207.898 843.029 206.204 836.8H206.194Z" stroke="#240C64" stroke-width="2" stroke-miterlimit="10" stroke-linecap="round" stroke-linejoin="round"/>
<path d="M205.637 844.291C204.196 836.558 192.98 833.896 191.087 843.744C190.203 848.352 190.676 853.002 192.097 857.147C193.159 860.22 194.969 862.976 197.399 864.975C199.966 867.1 203.238 867.994 206.152 868.783C211.108 870.13 215.726 870.235 218.535 865.312C222.06 859.136 218.998 855.306 214.495 854.138C209.993 852.971 206.5 848.941 205.626 844.302L205.637 844.291Z" stroke="#240C64" stroke-width="2" stroke-miterlimit="10" stroke-linecap="round" stroke-linejoin="round"/>
<path d="M210.012 863.397C211.906 860.272 210.738 858.884 209.055 857.526C207.372 856.169 205.204 854.823 205.068 851.782C204.773 845.038 196.662 844.333 196.914 850.33C197.03 853.013 197.651 855.58 198.587 857.832C199.523 860.083 200.775 861.987 202.132 863.365C204.857 866.111 208.014 866.701 210.002 863.408L210.012 863.397Z" stroke="#240C64" stroke-width="2" stroke-miterlimit="10" stroke-linecap="round" stroke-linejoin="round"/>
</g>
<path d="M684.605 491.458L873.98 572.248V327.638L684.605 260V491.458Z" fill="url(#paint0_linear_67_22126)" stroke="#240C64" stroke-width="2" stroke-linecap="round" stroke-linejoin="round"/>
<path d="M316.375 491.458L127 572.248V327.638L316.375 260V491.458Z" fill="url(#paint1_linear_67_22126)" stroke="#240C64" stroke-width="2" stroke-linecap="round" stroke-linejoin="round"/>
<path d="M610.959 260H390.021V488.513H610.959V260Z" fill="url(#paint2_linear_67_22126)" stroke="#240C64" stroke-width="2" stroke-linecap="round" stroke-linejoin="round"/>
<path d="M632.001 312.604H368.98V659.792H632.001V312.604Z" fill="url(#paint3_linear_67_22126)" stroke="#240C64" stroke-width="2" stroke-linecap="round" stroke-linejoin="round"/>
<path d="M411.062 354.688V428.333H484.708V354.688H411.062Z" fill="url(#paint4_linear_67_22126)" stroke="#240C64" stroke-width="2" stroke-linecap="round" stroke-linejoin="round"/>
<path d="M368.98 659.792L179.605 740.581V380.242L368.98 312.604V659.792Z" fill="url(#paint5_linear_67_22126)" stroke="#240C64" stroke-width="2" stroke-linecap="round" stroke-linejoin="round"/>
<path d="M300.595 456.634C293.672 442.799 290.074 427.533 290.074 412.068V382.988L342.678 363.819V392.899C342.678 408.375 346.277 423.63 353.199 437.465L300.595 456.634Z" fill="url(#paint6_linear_67_22126)" stroke="#240C64" stroke-width="2" stroke-linecap="round" stroke-linejoin="round"/>
<path d="M221.689 485.146C214.766 471.311 211.168 456.045 211.168 440.58V411.5L263.772 392.331V421.411C263.772 436.887 267.37 452.142 274.293 465.977L221.689 485.146Z" fill="url(#paint7_linear_67_22126)" stroke="#240C64" stroke-width="2" stroke-linecap="round" stroke-linejoin="round"/>
<path d="M221.689 594.068C214.766 580.233 211.168 564.967 211.168 549.501V520.422L263.772 501.253V530.333C263.772 545.809 267.37 561.064 274.293 574.899L221.689 594.068Z" fill="url(#paint8_linear_67_22126)" stroke="#240C64" stroke-width="2" stroke-linecap="round" stroke-linejoin="round"/>
<path d="M632 659.792L821.375 740.581V380.242L632 312.604V659.792Z" fill="url(#paint9_linear_67_22126)" stroke="#240C64" stroke-width="2" stroke-linecap="round" stroke-linejoin="round"/>
<path d="M700.385 456.634C707.308 442.799 710.906 427.533 710.906 412.068V382.988L658.302 363.819V392.899C658.302 408.375 654.704 423.63 647.781 437.465L700.385 456.634Z" fill="url(#paint10_linear_67_22126)" stroke="#240C64" stroke-width="2" stroke-linecap="round" stroke-linejoin="round"/>
<path d="M779.292 485.146C786.214 471.311 789.813 456.045 789.813 440.58V411.5L737.208 392.331V421.411C737.208 436.887 733.61 452.142 726.688 465.977L779.292 485.146Z" fill="url(#paint11_linear_67_22126)" stroke="#240C64" stroke-width="2" stroke-linecap="round" stroke-linejoin="round"/>
<path d="M700.385 565.556C707.308 551.722 710.906 536.456 710.906 520.99V491.911L658.302 472.742V501.821C658.302 517.297 654.704 532.553 647.781 546.388L700.385 565.556Z" fill="url(#paint12_linear_67_22126)" stroke="#240C64" stroke-width="2" stroke-linecap="round" stroke-linejoin="round"/>
<path d="M700.385 674.973C707.308 661.138 710.906 645.872 710.906 630.407V601.327L658.302 582.158V611.238C658.302 626.714 654.704 641.969 647.781 655.804L700.385 674.973Z" fill="url(#paint13_linear_67_22126)" stroke="#240C64" stroke-width="2" stroke-linecap="round" stroke-linejoin="round"/>
<path d="M779.292 594.068C786.214 580.233 789.813 564.967 789.813 549.501V520.422L737.208 501.253V530.333C737.208 545.809 733.61 561.064 726.688 574.899L779.292 594.068Z" fill="url(#paint14_linear_67_22126)" stroke="#240C64" stroke-width="2" stroke-linecap="round" stroke-linejoin="round"/>
<path d="M516.271 354.688V428.333H589.917V354.688H516.271Z" fill="url(#paint15_linear_67_22126)" stroke="#240C64" stroke-width="2" stroke-linecap="round" stroke-linejoin="round"/>
<path d="M411.062 459.896V533.542H484.708V459.896H411.062Z" fill="url(#paint16_linear_67_22126)" stroke="#240C64" stroke-width="2" stroke-linecap="round" stroke-linejoin="round"/>
<path d="M516.271 459.896V533.542H589.917V459.896H516.271Z" fill="url(#paint17_linear_67_22126)" stroke="#240C64" stroke-width="2" stroke-linecap="round" stroke-linejoin="round"/>
<g clip-path="url(#clip2_67_22126)">
<path d="M817 753.383L923.744 803.325C947.669 814.52 974.876 816.55 1000.2 809.017C962.598 806.513 979.515 750.1 945.733 746.881C927.469 745.135 929.331 761.116 905.386 761.116C883.891 761.116 879.599 741 864.996 741C852.034 741 854.623 750.279 836.537 750.279C826.869 750.279 828.299 756.118 817.021 753.373L817 753.383Z" fill="#E96AE9" stroke="#240C64" stroke-width="2" stroke-linecap="round" stroke-linejoin="round"/>
<mask id="mask0_67_22126" style="mask-type:alpha" maskUnits="userSpaceOnUse" x="816" y="740" width="186" height="75">
<path d="M817 753.383L923.744 803.325C947.669 814.52 974.876 816.55 1000.2 809.017C962.598 806.513 979.515 750.1 945.733 746.881C927.469 745.135 929.331 761.116 905.386 761.116C883.891 761.116 879.599 741 864.996 741C852.034 741 854.623 750.279 836.537 750.279C826.869 750.279 828.299 756.118 817.021 753.373L817 753.383Z" fill="#E96AE9" stroke="#240C64" stroke-width="2" stroke-linecap="round" stroke-linejoin="round"/>
</mask>
<g mask="url(#mask0_67_22126)">
<path d="M1000.2 809.017C962.598 806.513 979.516 750.1 945.733 746.881C927.469 745.135 929.331 761.116 905.386 761.116C883.892 761.116 879.599 741 864.996 741C852.035 741 854.623 750.279 836.538 750.279C826.869 750.279 828.3 756.118 817.021 753.373" stroke="#240C64" stroke-width="2" stroke-linecap="round" stroke-linejoin="round"/>
<path d="M827.27 758.181C837.306 760.758 836.559 756.045 844.976 756.119C860.936 756.308 859.042 748.365 871.005 748.838C884.208 749.364 887.912 767.018 907.428 767.692C912.993 767.881 917.107 767.071 920.474 765.861C929.742 762.536 932.52 755.635 944.219 756.466C953.772 757.15 958.906 761.6 962.62 768.944C970.321 784.167 971.131 810.059 989.901 811.5" stroke="#240C64" stroke-width="2" stroke-linecap="round" stroke-linejoin="round"/>
<path d="M837.537 762.988C846.333 765.408 846.28 761.8 853.424 761.968C867.248 762.315 866.059 755.729 877.022 756.687C888.826 757.718 891.919 772.91 909.468 774.288C914.255 774.667 917.958 774.162 921.125 773.362C929.721 771.184 932.73 765.671 942.703 766.082C951.362 766.439 956.023 769.259 959.589 775.929C966.333 788.512 968.027 812.847 979.6 814.004" stroke="#240C64" stroke-width="2" stroke-linecap="round" stroke-linejoin="round"/>
<path d="M847.805 767.786C855.359 770.048 855.99 767.554 861.882 767.807C873.581 768.322 873.076 763.062 883.039 764.524C893.434 766.05 895.916 778.759 911.519 780.863C915.538 781.41 918.82 781.231 921.787 780.842C929.688 779.79 932.971 776.076 941.209 775.666C948.973 775.277 953.139 776.886 956.59 782.894C962.324 792.857 964.954 815.624 969.32 816.487" stroke="#240C64" stroke-width="2" stroke-linecap="round" stroke-linejoin="round"/>
<path d="M858.062 772.594C864.375 774.698 865.701 773.32 870.319 773.656C879.893 774.361 880.083 770.395 889.046 772.373C898.031 774.361 899.904 784.546 913.56 787.46C916.8 788.154 919.662 788.386 922.439 788.344C929.646 788.228 933.192 785.619 939.694 785.282C946.585 784.924 950.204 784.556 953.56 789.88C958.21 797.265 961.851 818.412 959.02 818.991" stroke="#240C64" stroke-width="2" stroke-linecap="round" stroke-linejoin="round"/>
<path d="M868.332 777.392C873.403 779.338 875.413 779.085 878.779 779.496C886.228 780.401 887.112 777.676 895.065 780.211C903.019 782.747 903.924 790.206 915.602 794.046C918.074 794.856 920.515 795.372 923.093 795.824C929.605 796.971 933.414 795.498 938.18 794.867C944.187 794.078 947.228 792.226 950.531 796.834C954.003 801.684 958.748 821.179 948.722 821.463" stroke="#240C64" stroke-width="2" stroke-linecap="round" stroke-linejoin="round"/>
<path d="M878.6 782.2C892.098 788.512 891.414 783.683 901.083 788.07C908.416 791.395 908.153 797.455 923.745 803.326C939.336 809.196 942.03 797.813 947.501 803.831C949.699 806.25 955.644 823.978 938.421 823.978" stroke="#240C64" stroke-width="2" stroke-linecap="round" stroke-linejoin="round"/>
</g>
<path d="M158.001 487.534L236.486 525.094C224.356 502.674 210.132 511.164 203.041 493.647C195.36 474.668 173.856 463.884 158.001 487.534Z" fill="#E96AE9" stroke="#240C64" stroke-width="2" stroke-miterlimit="10" stroke-linecap="round" stroke-linejoin="round"/>
<path d="M236.486 525.094C224.356 502.674 210.132 511.164 203.041 493.647C195.36 474.668 173.856 463.884 158.001 487.534" stroke="#240C64" stroke-width="2" stroke-miterlimit="10" stroke-linecap="round" stroke-linejoin="round"/>
<path d="M219.896 517.151C206.261 502.316 199.307 503.137 193.468 492.784C186.545 480.528 173.173 479.17 168.755 492.669" stroke="#240C64" stroke-width="2" stroke-miterlimit="10" stroke-linecap="round" stroke-linejoin="round"/>
<path d="M203.303 509.207C188.163 501.958 188.111 495.309 183.881 491.922C177.274 486.63 172.477 494.447 179.505 497.813" stroke="#240C64" stroke-width="2" stroke-miterlimit="10" stroke-linecap="round" stroke-linejoin="round"/>
</g>
<path d="M871.901 235.039C853.208 235.039 838.055 219.901 838.055 201.229C838.055 182.556 853.208 167.418 871.901 167.418C890.593 167.418 905.746 182.556 905.746 201.229C905.746 219.901 890.593 235.039 871.901 235.039Z" fill="#FFBA5D" stroke="#240C64" stroke-width="2" stroke-miterlimit="10" stroke-linecap="round" stroke-linejoin="round"/>
<path d="M896.709 178.179C893.058 174.606 879.497 182.531 866.43 195.889C853.363 209.247 845.736 222.952 849.386 226.525" stroke="#240C64" stroke-width="2" stroke-miterlimit="10" stroke-linecap="round" stroke-linejoin="round"/>
<path d="M866.431 195.89L769.334 101.059" stroke="#240C64" stroke-width="2" stroke-miterlimit="10" stroke-linecap="round" stroke-linejoin="round"/>
<path d="M896.709 178.18L844.263 53.0488" stroke="#240C64" stroke-width="2" stroke-miterlimit="10" stroke-linecap="round" stroke-linejoin="round"/>
<path d="M722.98 176.971L849.388 226.525" stroke="#240C64" stroke-width="2" stroke-miterlimit="10" stroke-linecap="round" stroke-linejoin="round"/>
<path d="M844.263 57.2536C841.939 57.2536 840.055 55.3714 840.055 53.0497C840.055 50.7279 841.939 48.8457 844.263 48.8457C846.588 48.8457 848.472 50.7279 848.472 53.0497C848.472 55.3714 846.588 57.2536 844.263 57.2536Z" fill="#E96AE9" stroke="#240C64" stroke-width="2" stroke-miterlimit="10" stroke-linecap="round" stroke-linejoin="round"/>
<path d="M768.303 104.254C765.979 104.254 764.095 102.371 764.095 100.05C764.095 97.7279 765.979 95.8457 768.303 95.8457C770.628 95.8457 772.512 97.7279 772.512 100.05C772.512 102.371 770.628 104.254 768.303 104.254Z" fill="#E96AE9" stroke="#240C64" stroke-width="2" stroke-miterlimit="10" stroke-linecap="round" stroke-linejoin="round"/>
<path d="M722.979 181.155C720.655 181.155 718.771 179.282 718.771 176.972C718.771 174.662 720.655 172.789 722.979 172.789C725.303 172.789 727.188 174.662 727.188 176.972C727.188 179.282 725.303 181.155 722.979 181.155Z" fill="#E96AE9" stroke="#240C64" stroke-width="2" stroke-miterlimit="10" stroke-linecap="round" stroke-linejoin="round"/>
<path d="M794.007 732.179C794.047 732.478 794.075 732.776 794.075 733.074C794.075 736.994 790.318 740.004 786.385 738.96L784.677 738.512C779.483 737.143 773.963 737.55 769.027 739.679L765.243 741.32L764.701 727.989L768.05 726.646C772.526 724.856 777.435 724.449 782.141 725.494L789.274 727.067C791.756 727.623 793.641 729.657 794.007 732.179V732.179ZM768.715 868.118V875.97C768.715 881.232 774.289 884.65 778.981 882.263C780.174 881.653 781.137 880.757 781.802 879.659C782.48 878.574 782.846 877.299 782.846 875.97V869.271L768.715 868.118V868.118Z" fill="#E96AE9"/>
<path d="M816.992 883.293C817.765 884.772 817.901 886.602 817.073 888.311L816.87 888.704C813.059 896.597 806.129 902.523 797.748 905.073L786.031 908.626C779.074 910.742 772.28 913.359 765.703 916.465L758.19 919.99C750.256 923.72 741.604 925.659 732.844 925.659C730.769 925.659 729.169 924.425 728.45 922.784C728.355 922.499 728.26 922.201 728.165 921.916C728.07 921.564 728.029 921.197 728.029 920.831C728.029 919.868 728.328 918.878 728.979 917.997C731.379 914.769 734.363 912.084 737.739 910.064C741.116 908.029 744.886 906.66 748.86 906.077C762.611 904.029 775.806 899.242 787.659 891.986L802.224 883.063C805.18 881.259 808.57 880.296 812.042 880.296C814.266 880.296 816.07 881.558 816.992 883.293Z" fill="#45259A"/>
<path d="M728.979 917.997C728.328 918.878 728.03 919.868 728.03 920.831C728.03 921.197 728.071 921.563 728.165 921.916C724.87 912.125 722.334 902.089 720.557 891.918C730.145 878.628 744.751 869.786 761.038 867.494L768.714 868.118V875.97C768.714 881.232 774.288 884.649 778.98 882.263C780.173 881.652 781.136 880.757 781.801 879.659C782.479 878.574 782.845 877.299 782.845 875.97V869.271L806.374 871.197C809.805 871.468 812.815 873.597 814.226 876.73L817.141 883.226L816.992 883.293C816.07 881.558 814.266 880.296 812.042 880.296C808.571 880.296 805.18 881.259 802.224 883.063L787.659 891.986C775.806 899.241 762.611 904.029 748.86 906.076C744.887 906.66 741.117 908.029 737.74 910.063C734.363 912.084 731.379 914.769 728.979 917.997V917.997ZM811.5 776.186C813.521 767.696 811.5 758.759 806.008 751.965C804.231 749.782 803.119 747.124 802.794 744.317L801.153 730.362C799.362 715.105 790.67 701.53 777.569 693.529L774.518 694.384C768.036 696.201 763.656 702.236 763.927 708.949L764.7 727.989L768.049 726.646C772.525 724.856 777.434 724.449 782.14 725.493L789.273 727.067C791.755 727.623 793.64 729.657 794.006 732.179C794.047 732.478 794.074 732.776 794.074 733.074C794.074 736.993 790.317 740.004 786.384 738.96L784.676 738.512C779.482 737.143 773.962 737.549 769.026 739.679L765.242 741.32L765.541 748.616C782.384 754.04 793.396 769.69 793.396 786.818C793.396 787.265 793.382 787.699 793.368 788.147H793.396L810.646 779.739L811.5 776.186V776.186Z" fill="#8D5BE9"/>
<path d="M713.639 722.971L674.826 735.909L668.588 740.072L668.032 737.305L667.964 737.21C665.469 739.299 663.177 741.618 661.088 744.14C659.787 745.727 658.58 747.395 657.468 749.117L651.65 758.122L651.433 758.285L644.747 754.149L641.628 750.216C638.495 746.256 634.291 743.259 629.531 741.577C629.029 741.401 628.514 741.32 627.999 741.32C626.819 741.32 625.653 741.767 624.785 742.621C624.296 743.083 624.052 743.706 624.052 744.33C624.052 744.859 624.242 745.402 624.608 745.835L631.728 754.406C632.976 755.912 633.871 757.675 634.345 759.56L638.983 777.759L635.268 783.495C635.078 783.712 634.888 783.929 634.712 784.16C633.301 785.991 632.488 788.282 632.488 790.724L630.914 792.378L579.436 764.659H579.422L568.831 748.697C567.786 747.124 566.688 745.605 565.535 744.14L577.971 725.019C592.712 702.358 612.485 683.426 635.742 669.661C637.329 668.726 639.105 668.251 640.896 668.251C642.442 668.251 644.001 668.617 645.439 669.336L714.981 704.351C718.901 706.318 721.111 710.603 720.433 714.929C720.148 716.801 719.334 718.509 718.168 719.906C716.988 721.303 715.429 722.374 713.639 722.971V722.971Z" fill="url(#paint18_linear_67_22126)"/>
<path d="M793.393 786.818C793.393 787.266 793.38 787.7 793.366 788.147C793.298 790.263 793.068 792.392 792.648 794.534L792.2 796.853L744.993 823.515L727.77 776.335C726.644 773.257 725.126 770.477 723.308 768.008L765.538 748.616C782.382 754.04 793.393 769.69 793.393 786.818V786.818ZM693.812 837.497C692.687 839.07 691.521 840.616 690.3 842.121L672.155 864.66L698.572 849.743L698.694 849.688L693.826 837.497H693.812V837.497ZM676.644 761.96L669.47 767.697L659.678 788.134C660.112 788.852 660.492 789.612 660.818 790.412L660.98 790.819C662.974 795.701 661.143 801.302 656.654 804.068L655.095 805.031L644.815 830.187C640.204 841.47 632.705 851.343 623.09 858.815C620.093 861.148 616.526 862.287 612.973 862.287C608.606 862.287 604.28 860.565 601.053 857.188L591.723 847.41C581.524 882.344 541.844 897.37 511.602 880.622H511.589L521.515 891.58C529.381 900.286 539.498 906.646 550.754 909.969L571.353 916.044C600.402 924.629 631.756 914.824 650.755 891.227L672.155 864.66L690.3 842.121C691.521 840.616 692.687 839.07 693.812 837.497H693.826L698.694 849.688L717.409 896.57L719.05 894.088C719.538 893.356 720.04 892.624 720.555 891.919C730.143 878.628 744.749 869.786 761.036 867.495L744.993 823.515L727.77 776.335C726.644 773.257 725.126 770.477 723.308 768.008C712.676 753.661 691.561 750.08 676.644 761.96Z" fill="#FFBA5D"/>
<path d="M635.908 787.74L634.66 788.459L632.49 790.724C632.49 788.283 633.304 785.991 634.714 784.16C634.891 783.93 635.081 783.712 635.27 783.496C636.627 781.99 638.43 780.865 640.492 780.322C648.005 778.315 655.816 781.624 659.681 788.134C660.115 788.852 660.495 789.612 660.82 790.412L660.983 790.819C662.976 795.701 661.146 801.302 656.657 804.068L655.097 805.031L657.159 799.973C657.159 789.056 645.347 782.261 635.908 787.74ZM395.045 895.933C395.045 897.981 395.614 900.028 396.781 901.845C398.096 903.893 399.723 905.643 401.554 907.053C408.24 912.234 417.706 912.993 425.286 908.274L425.571 908.097C426.792 907.338 427.809 906.375 428.623 905.277C430.779 902.32 431.389 898.401 430.006 894.834C429.355 896.353 428.677 897.858 427.944 899.35L425.951 900.462C416.011 906.036 403.426 901.818 398.869 891.376L399.167 887.511L398.869 887.484L397.838 888.623C396.387 890.251 395.492 892.217 395.18 894.265C395.085 894.821 395.045 895.377 395.045 895.933Z" fill="#E96AE9"/>
<path d="M444.921 793.748L436.689 869.23C435.713 878.059 433.461 886.67 430.003 894.834C429.352 896.353 428.674 897.858 427.942 899.35L425.948 900.462C416.008 906.036 403.423 901.818 398.866 891.376L399.165 887.511L411.234 733.183C412.808 713.017 431.766 698.859 451.552 703.049L475.922 708.216L500.183 713.369L524.404 718.509C540.759 721.981 555.283 731.081 565.536 744.14C566.688 745.605 567.787 747.124 568.831 748.697L579.422 764.659H579.436L611.4 812.815L630.915 792.378L632.488 790.723L634.658 788.459L635.905 787.74C645.344 782.261 657.156 789.055 657.156 799.972L655.095 805.031L644.815 830.187C640.204 841.47 632.705 851.343 623.09 858.815C620.093 861.148 616.526 862.287 612.973 862.287C608.606 862.287 604.28 860.564 601.053 857.188L591.722 847.41C581.524 882.344 541.844 897.37 511.602 880.622C508.496 878.913 505.499 876.865 502.638 874.478L499.532 871.888C483.123 858.151 469.589 841.294 459.73 822.281L444.921 793.748V793.748Z" fill="#F59897"/>
<path d="M661.091 744.14C663.179 741.618 665.471 739.299 667.966 737.211L668.034 737.305L668.59 740.072L671.913 756.671C672.455 759.383 672.102 762.191 670.909 764.686L669.472 767.696L659.68 788.133C655.815 781.624 648.004 778.315 640.491 780.322C638.43 780.865 636.626 781.99 635.27 783.495L638.986 777.759L634.348 759.56C633.873 757.675 632.978 755.912 631.73 754.406L624.611 745.836C624.244 745.402 624.055 744.859 624.055 744.33C624.055 743.706 624.299 743.083 624.787 742.622C625.655 741.767 626.821 741.32 628.001 741.32C628.516 741.32 629.032 741.401 629.533 741.577C634.293 743.259 638.497 746.256 641.63 750.216L644.749 754.149L651.435 758.285L651.652 758.122L657.47 749.117C658.582 747.395 659.789 745.727 661.091 744.154V744.14ZM396.78 901.832C395.614 900.015 395.044 897.967 395.044 895.919C395.044 895.363 395.085 894.807 395.18 894.251L389.24 891.498C388.901 891.335 388.548 891.268 388.195 891.268C386.88 891.268 385.7 892.325 385.7 893.763C385.7 895.756 386.826 897.587 388.616 898.496L395.044 901.737L396.78 901.832V901.832ZM352.963 899.513C351.01 899.404 349.627 901.384 350.4 903.188L351.092 904.815L351.037 905.71L347.511 905.521C346.291 905.453 345.287 906.429 345.287 907.622V907.785C345.369 908.843 345.748 909.847 346.359 910.66C346.969 911.474 347.81 912.125 348.813 912.491C352.651 913.929 356.652 914.905 360.72 915.407L380.072 917.807L380.194 917.888C379.055 919.489 377.306 920.519 375.353 920.723L348.054 923.611C346.996 923.72 346.264 924.615 346.264 925.591C346.264 925.808 346.291 926.039 346.372 926.256C347.023 928.1 348.623 929.47 350.563 929.795C353.533 930.324 356.543 930.46 359.554 930.216L381.13 928.453L402.164 930.745C403.208 930.853 404.239 930.921 405.283 930.921C409.622 930.921 413.921 929.917 417.841 927.978C423.414 925.239 427.171 919.814 427.781 913.644L428.622 905.263C427.808 906.361 426.791 907.324 425.571 908.084L425.286 908.26C417.705 912.979 408.239 912.22 401.553 907.039C399.723 905.629 398.095 903.88 396.78 901.832L395.044 901.737L352.963 899.513V899.513ZM487.939 697.34C484.142 697.34 480.467 696.852 476.955 695.943L476.073 707.511L475.924 708.203L500.185 713.356L500.402 712.339L501.704 695.116C497.378 696.567 492.754 697.34 487.939 697.34V697.34ZM475.924 695.645V695.672C476.249 695.767 476.602 695.862 476.955 695.943C480.467 696.852 484.142 697.34 487.939 697.34C492.754 697.34 497.378 696.567 501.704 695.116C513.109 691.346 522.426 683.019 527.511 672.279C522.86 671.56 519.686 669.485 517.679 666.841C507.969 680.063 494.299 689.854 478.663 694.791L475.924 695.645ZM525.314 652.099C521.056 645.644 516.811 648.343 515.32 653.591C514.194 657.497 514.614 662.827 517.679 666.841C519.686 669.485 522.86 671.56 527.511 672.279C529.857 667.329 531.295 661.864 531.62 656.1C529.356 655.829 527.186 654.676 525.64 652.547L525.314 652.099V652.099ZM444.177 653.578C442.482 656.005 439.905 657.144 437.342 657.144C436.542 657.144 435.742 657.036 434.969 656.805C434.684 663.043 437.939 670.597 447.798 672.102L448.191 671.913C445.614 666.339 444.177 660.128 444.177 653.578Z" fill="#B9724B"/>
<path d="M512.012 655.693L515.321 653.605C514.195 657.511 514.615 662.84 517.68 666.855C507.97 680.077 494.3 689.868 478.664 694.804L475.925 695.659V695.686C463.584 692.16 453.481 683.386 448.192 671.926C445.615 666.353 444.178 660.142 444.178 653.591L446.212 654.554C453.603 658.053 462.214 657.877 469.456 654.053C472.372 652.52 475.559 651.761 478.732 651.761C482.706 651.761 486.652 652.941 490.042 655.273C493.446 657.619 497.393 658.786 501.352 658.786C505.055 658.786 508.757 657.755 512.012 655.693V655.693Z" fill="#874A3C"/>
<path d="M501.703 579.438L483.612 584.482C474.16 587.127 468.003 596.2 469.034 605.95L461.982 605.042C458.754 604.621 455.581 604.852 452.598 605.611C448.922 597.827 452.245 588.551 460.029 584.862C468.817 580.699 478.378 578.556 488.06 578.556C489.851 578.556 491.654 578.624 493.444 578.773L501.703 579.438V579.438ZM434.602 623.404C433.788 626.428 432.513 629.303 430.832 631.92C429.15 634.538 427.075 636.897 424.648 638.891C421.379 641.576 419.616 645.536 419.616 649.564C419.616 651.503 420.023 653.469 420.878 655.327L421.949 657.66L425.732 651.245C426.614 649.753 428.824 649.97 429.408 651.598C430.398 654.351 432.54 656.127 434.968 656.819C435.741 657.049 436.541 657.158 437.341 657.158C439.904 657.158 442.481 656.019 444.176 653.591L446.21 654.554C453.601 658.053 462.213 657.877 469.454 654.052C472.37 652.52 475.557 651.76 478.73 651.76C482.704 651.76 486.65 652.94 490.04 655.273C493.444 657.619 497.391 658.785 501.351 658.785C505.053 658.785 508.755 657.755 512.01 655.693L515.319 653.605C516.811 648.357 521.055 645.658 525.314 652.113L525.639 652.561C527.185 654.69 529.355 655.842 531.62 656.1C535.552 656.575 539.716 654.351 541.031 649.957L541.167 649.509C544.015 639.962 554.674 635.31 563.543 639.664L565.496 640.627L565.631 640.328C572.805 624.041 564.316 605.136 547.378 599.685L547.025 599.576C543.269 598.356 540.475 595.386 539.526 591.657C537.058 581.947 528.324 575.505 518.777 575.505C516.865 575.505 514.939 575.749 513.013 576.291L501.703 579.438L483.612 584.482C474.16 587.127 468.003 596.2 469.034 605.95L461.982 605.042C458.754 604.621 455.581 604.852 452.598 605.611C444.054 607.794 437.002 614.426 434.602 623.404V623.404Z" fill="#8B402F"/>
<path d="M531.625 656.114C530.323 679.114 511.256 697.354 487.93 697.354C464.605 697.354 444.168 677.758 444.168 653.591" stroke="#240C64" stroke-width="2" stroke-linecap="round" stroke-linejoin="round"/>
<path d="M527.596 672.306C506.319 669.092 515.785 637.657 525.318 652.113L525.644 652.561C529.875 658.406 538.961 656.873 541.036 649.957L541.171 649.509C544.033 639.962 554.679 635.311 563.548 639.664L565.514 640.627L565.65 640.328C572.824 624.041 564.334 605.137 547.396 599.685L547.043 599.576C543.287 598.369 540.493 595.386 539.544 591.657C536.574 580.007 524.613 573.064 513.018 576.292L483.617 584.483C474.165 587.113 467.994 596.2 469.039 605.95L461.973 605.042C449.537 603.441 437.834 611.28 434.593 623.39C432.965 629.466 429.494 634.877 424.639 638.877C419.797 642.878 418.251 649.618 420.869 655.327L421.94 657.66L425.737 651.245C426.619 649.753 428.829 649.97 429.412 651.598C431.704 657.999 440.275 659.165 444.181 653.591L446.215 654.554C453.606 658.067 462.217 657.877 469.445 654.052C475.996 650.594 483.942 651.055 490.045 655.259C496.622 659.789 505.261 659.952 512.015 655.68L515.337 653.578" stroke="#240C64" stroke-width="2" stroke-linecap="round" stroke-linejoin="round"/>
<path d="M522.429 653.388L524.545 666.854" stroke="#240C64" stroke-width="2" stroke-linecap="round" stroke-linejoin="round"/>
<path d="M447.799 672.116C437.94 670.624 434.686 663.071 434.97 656.833" stroke="#240C64" stroke-width="2" stroke-linecap="round" stroke-linejoin="round"/>
<path d="M517.68 666.854C507.97 680.077 494.314 689.868 478.664 694.804L475.924 695.672" stroke="#240C64" stroke-width="2" stroke-linecap="round" stroke-linejoin="round"/>
<path d="M452.601 605.625C448.926 597.84 452.262 588.551 460.033 584.862C470.448 579.926 481.961 577.824 493.448 578.773L501.707 579.451" stroke="#240C64" stroke-width="2" stroke-linecap="round" stroke-linejoin="round"/>
<path d="M501.707 695.13L500.405 712.353" stroke="#240C64" stroke-width="2" stroke-linecap="round" stroke-linejoin="round"/>
<path d="M476.957 695.957L476.075 707.525" stroke="#240C64" stroke-width="2" stroke-linecap="round" stroke-linejoin="round"/>
<path d="M425.533 756.346L459.734 822.281C469.594 841.28 483.128 858.151 499.551 871.888L502.656 874.479C533.427 900.232 580.512 885.911 591.741 847.397" stroke="#240C64" stroke-width="2" stroke-linecap="round" stroke-linejoin="round"/>
<path d="M444.924 793.748L436.679 869.231C435.54 879.7 432.583 889.885 427.945 899.35L425.938 900.476C415.998 906.05 403.426 901.832 398.856 891.39L411.224 733.197C412.797 713.031 431.756 698.859 451.542 703.063L524.394 718.523C542.58 722.388 558.528 733.224 568.807 748.711L621.479 828.031" stroke="#240C64" stroke-width="2" stroke-linecap="round" stroke-linejoin="round"/>
<path d="M611.405 812.815L634.662 788.459L635.91 787.74C645.349 782.261 657.174 789.069 657.174 799.973L644.82 830.187C640.209 841.47 632.723 851.343 623.095 858.815C616.422 863.996 606.902 863.291 601.071 857.188L580.946 836.1C568.713 823.285 557.498 809.533 547.409 794.955" stroke="#240C64" stroke-width="2" stroke-linecap="round" stroke-linejoin="round"/>
<path d="M511.594 880.636L521.507 891.58C529.386 900.272 539.503 906.633 550.759 909.955L571.358 916.031C600.407 924.615 631.761 914.81 650.76 891.214L690.305 842.108C700.164 829.862 707.08 815.528 710.539 800.19L714.648 781.95" stroke="#240C64" stroke-width="2" stroke-linecap="round" stroke-linejoin="round"/>
<path d="M655.099 805.031L656.659 804.068C661.148 801.302 662.978 795.701 660.985 790.819L660.822 790.412C657.554 782.411 648.848 778.085 640.494 780.309C635.774 781.57 632.493 785.842 632.493 790.71" stroke="#240C64" stroke-width="2" stroke-linecap="round" stroke-linejoin="round"/>
<path d="M430.01 894.834C431.909 899.743 430.051 905.317 425.589 908.097L425.291 908.273C415.635 914.281 402.942 911.42 396.798 901.845C394.14 897.696 394.574 892.298 397.856 888.623L398.873 887.484" stroke="#240C64" stroke-width="2" stroke-linecap="round" stroke-linejoin="round"/>
<path d="M659.667 788.147L670.91 764.686C672.103 762.191 672.456 759.384 671.913 756.671L668.035 737.306" stroke="#240C64" stroke-width="2" stroke-linecap="round" stroke-linejoin="round"/>
<path d="M651.521 758.339L657.474 749.117C663.17 740.289 671.361 733.332 680.989 729.128L714.649 714.455" stroke="#240C64" stroke-width="2" stroke-linecap="round" stroke-linejoin="round"/>
<path d="M635.272 783.495L638.988 777.759" stroke="#240C64" stroke-width="2" stroke-linecap="round" stroke-linejoin="round"/>
<path d="M565.54 744.141L577.989 725.005C592.731 702.358 612.49 683.413 635.761 669.662C638.731 667.912 642.379 667.79 645.457 669.336L715 704.351C718.919 706.331 721.116 710.603 720.452 714.943C719.868 718.686 717.251 721.791 713.657 722.985L674.845 735.922L668.606 740.072" stroke="#240C64" stroke-width="2" stroke-linecap="round" stroke-linejoin="round"/>
<path d="M659.669 752.182L651.437 758.271L644.752 754.135L641.633 750.202C638.486 746.242 634.296 743.245 629.522 741.577C627.868 740.994 626.037 741.401 624.776 742.608C623.881 743.476 623.813 744.873 624.599 745.822L631.719 754.393C632.967 755.898 633.862 757.647 634.337 759.532L638.975 777.732" stroke="#240C64" stroke-width="2" stroke-linecap="round" stroke-linejoin="round"/>
<path d="M661.092 744.141L661.784 748.616" stroke="#240C64" stroke-width="2" stroke-linecap="round" stroke-linejoin="round"/>
<path d="M428.624 905.263L427.783 913.657C427.173 919.828 423.416 925.252 417.843 928.005C412.988 930.405 407.549 931.355 402.152 930.772L381.118 928.48L359.542 930.243C356.545 930.487 353.521 930.351 350.551 929.836C348.612 929.497 347.012 928.141 346.361 926.283C345.94 925.062 346.754 923.774 348.029 923.638L375.328 920.75C377.375 920.533 379.206 919.407 380.332 917.685L381.295 916.207" stroke="#240C64" stroke-width="2" stroke-linecap="round" stroke-linejoin="round"/>
<path d="M380.075 917.821L360.709 915.421C356.641 914.919 352.654 913.942 348.803 912.505C346.809 911.759 345.426 909.928 345.263 907.799C345.168 906.524 346.212 905.467 347.487 905.534L385.689 907.65" stroke="#240C64" stroke-width="2" stroke-linecap="round" stroke-linejoin="round"/>
<path d="M351.094 904.829L350.389 903.188C349.616 901.384 350.999 899.405 352.952 899.513L396.769 901.832" stroke="#240C64" stroke-width="2" stroke-linecap="round" stroke-linejoin="round"/>
<path d="M401.555 907.053V917.916" stroke="#240C64" stroke-width="2" stroke-linecap="round" stroke-linejoin="round"/>
<path d="M395.048 901.751L388.62 898.509C386.83 897.601 385.704 895.784 385.704 893.776C385.704 891.959 387.59 890.752 389.23 891.525L395.17 894.278" stroke="#240C64" stroke-width="2" stroke-linecap="round" stroke-linejoin="round"/>
<path d="M579.427 764.659L630.919 792.378" stroke="#240C64" stroke-width="2" stroke-linecap="round" stroke-linejoin="round"/>
<path d="M693.83 837.497L717.414 896.584L719.055 894.102C728.575 879.619 743.872 869.922 761.041 867.508L727.774 776.362C720.112 755.369 694.129 748.06 676.648 761.987L669.461 767.71" stroke="#240C64" stroke-width="2" stroke-linecap="round" stroke-linejoin="round"/>
<path d="M698.577 849.743L672.16 864.66" stroke="#240C64" stroke-width="2" stroke-linecap="round" stroke-linejoin="round"/>
<path d="M723.302 768.022L765.545 748.616C784.911 754.854 796.547 774.572 792.654 794.534L792.207 796.853L745 823.515" stroke="#240C64" stroke-width="2" stroke-linecap="round" stroke-linejoin="round"/>
<path d="M761.04 867.495L806.389 871.197C809.82 871.482 812.817 873.597 814.228 876.73L817.632 884.297" stroke="#240C64" stroke-width="2" stroke-linecap="round" stroke-linejoin="round"/>
<path d="M720.557 891.905C722.388 902.388 725.019 912.708 728.45 922.784L728.844 923.923" stroke="#240C64" stroke-width="2" stroke-linecap="round" stroke-linejoin="round"/>
<path d="M732.848 925.659C741.609 925.659 750.275 923.72 758.208 919.991L765.708 916.465C772.285 913.373 779.079 910.755 786.036 908.64L797.767 905.073C806.148 902.524 813.078 896.597 816.888 888.718L817.078 888.325C818.868 884.623 816.17 880.31 812.06 880.31C808.589 880.31 805.198 881.273 802.242 883.077L787.677 892C775.824 899.255 762.629 904.042 748.892 906.09C740.945 907.27 733.798 911.555 729.011 918.011C726.665 921.184 728.929 925.673 732.862 925.673L732.848 925.659Z" stroke="#240C64" stroke-width="2" stroke-linecap="round" stroke-linejoin="round"/>
<path d="M768.719 868.118V875.97C768.719 881.246 774.293 884.663 778.985 882.276C781.358 881.069 782.85 878.642 782.85 875.97V869.271" stroke="#240C64" stroke-width="2" stroke-linecap="round" stroke-linejoin="round"/>
<path d="M793.399 788.147L810.649 779.739L811.504 776.186C813.524 767.696 811.504 758.759 806.011 751.979C804.235 749.782 803.123 747.137 802.797 744.33L801.156 730.362C799.366 715.119 790.674 701.531 777.56 693.543L774.508 694.397C768.026 696.215 763.646 702.236 763.917 708.962L765.531 748.616" stroke="#240C64" stroke-width="2" stroke-linecap="round" stroke-linejoin="round"/>
<path d="M764.701 727.989L768.05 726.646C772.526 724.856 777.435 724.449 782.141 725.494L789.26 727.067C791.742 727.623 793.627 729.643 793.993 732.166C794.617 736.505 790.616 740.072 786.372 738.946L784.663 738.499C779.469 737.129 773.95 737.536 769.013 739.679L765.23 741.32" stroke="#240C64" stroke-width="2" stroke-linecap="round" stroke-linejoin="round"/>
<path d="M576.998 147.124C589.746 145.491 598.757 133.832 597.124 121.083C595.491 108.335 583.832 99.3239 571.083 100.957C558.335 102.59 549.324 114.249 550.957 126.998C552.59 139.746 564.249 148.757 576.998 147.124Z" fill="#FFBA5D" stroke="#240C64" stroke-width="2" stroke-miterlimit="10" stroke-linecap="round" stroke-linejoin="round"/>
<mask id="mask1_67_22126" style="mask-type:alpha" maskUnits="userSpaceOnUse" x="549" y="99" width="50" height="50">
<path d="M576.998 147.124C589.746 145.491 598.757 133.832 597.124 121.083C595.491 108.335 583.832 99.3239 571.083 100.957C558.335 102.59 549.324 114.249 550.957 126.998C552.59 139.746 564.249 148.757 576.998 147.124Z" fill="#D9D9D9" stroke="#240C64" stroke-width="2" stroke-miterlimit="10" stroke-linecap="round" stroke-linejoin="round"/>
</mask>
<g mask="url(#mask1_67_22126)">
<path d="M605.14 139.742C609.727 118.827 603.456 115.639 598.375 113.282C593.293 110.926 593.251 106.991 599.08 103.624C604.561 100.458 603.256 86.9699 583.414 89.5159" stroke="#240C64" stroke-width="2" stroke-linecap="round" stroke-linejoin="round"/>
<path d="M597.754 142.194C602.478 122.099 596.176 119.216 591.031 116.996C585.35 114.545 585.508 109.895 591.105 105.918C596.155 102.341 595.555 89.4738 577.859 90.9993" stroke="#240C64" stroke-width="2" stroke-linecap="round" stroke-linejoin="round"/>
<path d="M590.366 144.645C595.227 125.382 588.883 122.804 583.696 120.71C577.415 118.164 577.773 112.82 583.138 108.212C587.768 104.245 587.852 91.9779 572.312 92.4829" stroke="#240C64" stroke-width="2" stroke-linecap="round" stroke-linejoin="round"/>
<path d="M582.982 147.097C587.99 128.653 581.583 126.413 576.354 124.424C569.463 121.804 570.042 115.765 575.176 110.505C579.405 106.17 580.152 94.4713 566.77 93.9663" stroke="#240C64" stroke-width="2" stroke-linecap="round" stroke-linejoin="round"/>
<path d="M575.586 149.548C580.731 131.936 574.271 130.021 569.011 128.138C561.509 125.455 562.33 118.743 567.201 112.788C571.041 108.106 572.451 96.9647 561.215 95.4392" stroke="#240C64" stroke-width="2" stroke-linecap="round" stroke-linejoin="round"/>
<path d="M568.201 151.999C573.482 135.208 566.97 133.64 561.668 131.852C553.545 129.116 554.64 121.72 559.227 115.082C562.688 110.063 564.74 99.4686 555.66 96.9226" stroke="#240C64" stroke-width="2" stroke-linecap="round" stroke-linejoin="round"/>
<path d="M560.816 154.45C566.234 138.49 559.669 137.27 554.335 135.566C545.592 132.778 546.992 124.719 551.263 117.375C554.377 112.02 557.039 101.962 550.116 98.406" stroke="#240C64" stroke-width="2" stroke-linecap="round" stroke-linejoin="round"/>
<path d="M553.419 156.891C558.984 141.752 552.356 140.889 546.98 139.279C537.616 136.46 539.342 127.717 543.277 119.669C546.054 113.987 549.315 104.466 544.539 99.8894" stroke="#240C64" stroke-width="2" stroke-linecap="round" stroke-linejoin="round"/>
</g>
<path d="M341.302 945.604C355.828 945.604 367.604 933.828 367.604 919.302C367.604 904.776 355.828 893 341.302 893C326.776 893 315 904.776 315 919.302C315 933.828 326.776 945.604 341.302 945.604Z" fill="#FFBA5D" stroke="#240C64" stroke-width="2" stroke-linecap="round" stroke-linejoin="round"/>
<mask id="mask2_67_22126" style="mask-type:alpha" maskUnits="userSpaceOnUse" x="314" y="892" width="55" height="55">
<path d="M341.302 945.604C355.828 945.604 367.604 933.828 367.604 919.302C367.604 904.776 355.828 893 341.302 893C326.776 893 315 904.776 315 919.302C315 933.828 326.776 945.604 341.302 945.604Z" fill="#FFBA5D" stroke="#240C64" stroke-width="2" stroke-linecap="round" stroke-linejoin="round"/>
</mask>
<g mask="url(#mask2_67_22126)">
<path d="M321.702 890.591C299.177 930.886 315.569 935.841 323.617 933.326C331.665 930.812 332.633 934.789 329.814 941.396C325.311 951.959 332.696 956.777 332.696 956.777" stroke="#240C64" stroke-width="2" stroke-linecap="round" stroke-linejoin="round"/>
<path d="M327.615 888.676C308.467 924.962 323.691 928.939 331.834 926.993C340.409 924.952 342.523 930.18 339.104 937.755C334.37 948.213 340.672 953.558 340.672 953.558" stroke="#240C64" stroke-width="2" stroke-linecap="round" stroke-linejoin="round"/>
<path d="M333.528 886.771C317.767 919.06 331.834 922.09 340.04 920.68C349.403 919.07 352.423 925.593 348.372 934.126C343.449 944.489 348.625 950.349 348.625 950.349" stroke="#240C64" stroke-width="2" stroke-linecap="round" stroke-linejoin="round"/>
<path d="M339.45 884.857C327.067 913.137 339.997 915.273 348.256 914.357C358.43 913.232 362.354 921.017 357.651 930.496C352.559 940.775 356.589 947.14 356.589 947.14" stroke="#240C64" stroke-width="2" stroke-linecap="round" stroke-linejoin="round"/>
<path d="M345.363 882.942C336.368 907.224 348.162 908.486 356.473 908.034C367.457 907.424 372.297 916.44 366.931 926.856C361.566 937.271 364.553 943.921 364.553 943.921" stroke="#240C64" stroke-width="2" stroke-linecap="round" stroke-linejoin="round"/>
<path d="M351.277 881.038C345.659 901.312 356.316 901.596 364.68 901.722C376.464 901.89 382.25 911.875 376.201 923.237C370.814 933.369 372.508 940.723 372.508 940.723" stroke="#240C64" stroke-width="2" stroke-linecap="round" stroke-linejoin="round"/>
<path d="M357.199 879.123C354.968 895.388 364.479 895.02 372.906 895.388C385.489 895.946 392.233 907.308 385.489 919.586C379.966 929.655 380.481 937.493 380.481 937.493" stroke="#240C64" stroke-width="2" stroke-linecap="round" stroke-linejoin="round"/>
</g>
<path d="M924.672 405.344C937.745 405.344 948.344 394.745 948.344 381.672C948.344 368.598 937.745 358 924.672 358C911.598 358 901 368.598 901 381.672C901 394.745 911.598 405.344 924.672 405.344Z" fill="#FFBA5D" stroke="#240C64" stroke-width="2" stroke-miterlimit="10" stroke-linecap="round" stroke-linejoin="round"/>
<mask id="mask3_67_22126" style="mask-type:alpha" maskUnits="userSpaceOnUse" x="900" y="357" width="50" height="50">
<path d="M924.672 405.344C937.745 405.344 948.344 394.745 948.344 381.672C948.344 368.598 937.745 358 924.672 358C911.598 358 901 368.598 901 381.672C901 394.745 911.598 405.344 924.672 405.344Z" fill="#FFBA5D" stroke="#240C64" stroke-width="2" stroke-miterlimit="10" stroke-linecap="round" stroke-linejoin="round"/>
</mask>
<g mask="url(#mask3_67_22126)">
<path d="M914.152 341.798C939.97 332.487 938.54 341.935 936.046 350.036C932.869 360.357 944.589 362.303 948.345 359.704C956.856 353.834 962.548 356.243 961.833 381.672" stroke="#240C64" stroke-width="2" stroke-miterlimit="10" stroke-linecap="round" stroke-linejoin="round"/>
<path d="M911.145 346.196C932.87 340.672 932.754 350.057 931.713 357.243C930.387 366.375 939.951 368.342 943.464 366.911C951.408 363.681 958.73 365.87 959.54 385.06" stroke="#240C64" stroke-width="2" stroke-miterlimit="10" stroke-linecap="round" stroke-linejoin="round"/>
<path d="M908.125 350.593C925.747 348.857 926.957 358.137 927.368 364.46C927.883 372.361 935.363 374.381 938.572 374.118C946.126 373.497 954.911 375.485 957.226 388.437" stroke="#240C64" stroke-width="2" stroke-miterlimit="10" stroke-linecap="round" stroke-linejoin="round"/>
<path d="M905.113 354.991C918.643 357.043 921.116 366.164 923.03 371.666C925.334 378.274 930.847 380.493 933.688 381.325C941.021 383.471 951.089 385.112 954.929 391.814" stroke="#240C64" stroke-width="2" stroke-miterlimit="10" stroke-linecap="round" stroke-linejoin="round"/>
<path d="M902.105 359.399C911.532 365.228 915.193 374.213 918.697 378.884C922.674 384.197 926.324 386.722 928.807 388.542C935.867 393.708 947.282 394.739 952.637 395.202" stroke="#240C64" stroke-width="2" stroke-miterlimit="10" stroke-linecap="round" stroke-linejoin="round"/>
<path d="M899.086 363.797C904.42 373.413 909.207 382.314 914.352 386.101C919.928 390.204 921.716 392.971 923.915 395.749C930.48 404.039 943.452 404.365 950.333 398.579" stroke="#240C64" stroke-width="2" stroke-miterlimit="10" stroke-linecap="round" stroke-linejoin="round"/>
<path d="M896.078 368.195C897.309 381.598 903.222 390.499 910.029 393.308C917.225 396.285 917.078 399.178 919.045 402.955C924.968 414.318 939.655 413.981 948.041 401.966" stroke="#240C64" stroke-width="2" stroke-miterlimit="10" stroke-linecap="round" stroke-linejoin="round"/>
<path d="M893.068 372.592C890.206 389.783 897.287 398.726 905.693 400.525C914.562 402.419 912.405 405.375 914.162 410.162C919.412 424.523 935.835 423.608 945.746 405.344" stroke="#240C64" stroke-width="2" stroke-miterlimit="10" stroke-linecap="round" stroke-linejoin="round"/>
</g>
<path d="M623.823 120.646C623.823 100.309 607.337 83.8229 587 83.8229C607.337 83.8229 623.823 67.3368 623.823 47C623.823 67.3368 640.309 83.8229 660.646 83.8229C640.309 83.8229 623.823 100.309 623.823 120.646Z" fill="#FFBA5D" stroke="#240C64" stroke-width="2" stroke-linecap="round" stroke-linejoin="round"/>
<path d="M881.26 298.521C884.166 298.521 886.521 296.166 886.521 293.26C886.521 290.355 884.166 288 881.26 288C878.355 288 876 290.355 876 293.26C876 296.166 878.355 298.521 881.26 298.521Z" fill="#FFBA5D" stroke="#240C64" stroke-width="2" stroke-linecap="round" stroke-linejoin="round"/>
</g>
<defs>
<linearGradient id="paint0_linear_67_22126" x1="779.293" y1="260" x2="779.293" y2="572.248" gradientUnits="userSpaceOnUse">
<stop stop-color="#8D5BE9"/>
<stop offset="1" stop-color="white"/>
</linearGradient>
<linearGradient id="paint1_linear_67_22126" x1="221.688" y1="260" x2="221.688" y2="572.248" gradientUnits="userSpaceOnUse">
<stop stop-color="#E96AE9"/>
<stop offset="1" stop-color="white"/>
</linearGradient>
<linearGradient id="paint2_linear_67_22126" x1="500.49" y1="260" x2="500.49" y2="488.513" gradientUnits="userSpaceOnUse">
<stop stop-color="#FFBA5D"/>
<stop offset="1" stop-color="white"/>
</linearGradient>
<linearGradient id="paint3_linear_67_22126" x1="500.491" y1="312.604" x2="500.491" y2="659.792" gradientUnits="userSpaceOnUse">
<stop stop-color="#E96AE9"/>
<stop offset="1" stop-color="#F59897"/>
</linearGradient>
<linearGradient id="paint4_linear_67_22126" x1="447.49" y1="355.086" x2="447.49" y2="428.086" gradientUnits="userSpaceOnUse">
<stop stop-color="white" stop-opacity="0"/>
<stop offset="1" stop-color="white"/>
</linearGradient>
<linearGradient id="paint5_linear_67_22126" x1="274.293" y1="312.604" x2="274.293" y2="740.581" gradientUnits="userSpaceOnUse">
<stop stop-color="#8D5BE9"/>
<stop offset="1" stop-color="#F59897"/>
</linearGradient>
<linearGradient id="paint6_linear_67_22126" x1="321.637" y1="363.819" x2="321.637" y2="456.634" gradientUnits="userSpaceOnUse">
<stop stop-color="white" stop-opacity="0"/>
<stop offset="1" stop-color="white"/>
</linearGradient>
<linearGradient id="paint7_linear_67_22126" x1="242.73" y1="392.331" x2="242.73" y2="485.146" gradientUnits="userSpaceOnUse">
<stop stop-color="white" stop-opacity="0"/>
<stop offset="1" stop-color="white"/>
</linearGradient>
<linearGradient id="paint8_linear_67_22126" x1="242.73" y1="501.253" x2="242.73" y2="594.068" gradientUnits="userSpaceOnUse">
<stop stop-color="white" stop-opacity="0"/>
<stop offset="1" stop-color="white"/>
</linearGradient>
<linearGradient id="paint9_linear_67_22126" x1="726.688" y1="312.604" x2="726.688" y2="740.581" gradientUnits="userSpaceOnUse">
<stop stop-color="#FFBA5D"/>
<stop offset="1" stop-color="#F59897"/>
</linearGradient>
<linearGradient id="paint10_linear_67_22126" x1="679.344" y1="363.819" x2="679.344" y2="456.634" gradientUnits="userSpaceOnUse">
<stop stop-color="white" stop-opacity="0"/>
<stop offset="1" stop-color="white"/>
</linearGradient>
<linearGradient id="paint11_linear_67_22126" x1="758.25" y1="392.331" x2="758.25" y2="485.146" gradientUnits="userSpaceOnUse">
<stop stop-color="white" stop-opacity="0"/>
<stop offset="1" stop-color="white"/>
</linearGradient>
<linearGradient id="paint12_linear_67_22126" x1="679.344" y1="472.742" x2="679.344" y2="565.556" gradientUnits="userSpaceOnUse">
<stop stop-color="white" stop-opacity="0"/>
<stop offset="1" stop-color="white"/>
</linearGradient>
<linearGradient id="paint13_linear_67_22126" x1="679.344" y1="582.158" x2="679.344" y2="674.973" gradientUnits="userSpaceOnUse">
<stop stop-color="white" stop-opacity="0"/>
<stop offset="1" stop-color="white"/>
</linearGradient>
<linearGradient id="paint14_linear_67_22126" x1="758.25" y1="501.253" x2="758.25" y2="594.068" gradientUnits="userSpaceOnUse">
<stop stop-color="white" stop-opacity="0"/>
<stop offset="1" stop-color="white"/>
</linearGradient>
<linearGradient id="paint15_linear_67_22126" x1="553.49" y1="355.086" x2="553.49" y2="428.086" gradientUnits="userSpaceOnUse">
<stop stop-color="white" stop-opacity="0"/>
<stop offset="1" stop-color="white"/>
</linearGradient>
<linearGradient id="paint16_linear_67_22126" x1="447.49" y1="460.086" x2="447.49" y2="533.086" gradientUnits="userSpaceOnUse">
<stop stop-color="white" stop-opacity="0"/>
<stop offset="1" stop-color="white"/>
</linearGradient>
<linearGradient id="paint17_linear_67_22126" x1="553.49" y1="460.086" x2="553.49" y2="533.086" gradientUnits="userSpaceOnUse">
<stop stop-color="white" stop-opacity="0"/>
<stop offset="1" stop-color="white"/>
</linearGradient>
<linearGradient id="paint18_linear_67_22126" x1="643.045" y1="668.251" x2="643.045" y2="792.378" gradientUnits="userSpaceOnUse">
<stop stop-color="white"/>
<stop offset="1" stop-color="#8D5BE9"/>
</linearGradient>
<clipPath id="clip0_67_22126">
<rect width="1000" height="1000" fill="white"/>
</clipPath>
<clipPath id="clip1_67_22126">
<rect width="1000" height="1000" fill="white"/>
</clipPath>
<clipPath id="clip2_67_22126">
<rect width="1000" height="1000" fill="white"/>
</clipPath>
</defs>
</svg>
